<?xml version="1.0" encoding="utf-8"?>
<!-- Generator: Adobe Illustrator 25.2.1, SVG Export Plug-In . SVG Version: 6.00 Build 0)  -->
<!DOCTYPE svg PUBLIC "-//W3C//DTD SVG 1.1//EN" "http://www.w3.org/Graphics/SVG/1.1/DTD/svg11.dtd" [
	<!ENTITY ns_extend "http://ns.adobe.com/Extensibility/1.0/">
	<!ENTITY ns_ai "http://ns.adobe.com/AdobeIllustrator/10.0/">
	<!ENTITY ns_graphs "http://ns.adobe.com/Graphs/1.0/">
	<!ENTITY ns_vars "http://ns.adobe.com/Variables/1.0/">
	<!ENTITY ns_imrep "http://ns.adobe.com/ImageReplacement/1.0/">
	<!ENTITY ns_sfw "http://ns.adobe.com/SaveForWeb/1.0/">
	<!ENTITY ns_custom "http://ns.adobe.com/GenericCustomNamespace/1.0/">
	<!ENTITY ns_adobe_xpath "http://ns.adobe.com/XPath/1.0/">
]>
<svg version="1.1" id="Capa_1" xmlns:x="&ns_extend;" xmlns:i="&ns_ai;" xmlns:graph="&ns_graphs;"
	 xmlns="http://www.w3.org/2000/svg" xmlns:xlink="http://www.w3.org/1999/xlink" x="0px" y="0px" viewBox="0 0 435.1 433"
	 style="enable-background:new 0 0 435.1 433;" xml:space="preserve">
<style type="text/css">
	.st0{fill:#71692A;}
</style>
<metadata>
	<sfw  xmlns="&ns_sfw;">
		<slices></slices>
		<sliceSourceBounds  bottomLeftOrigin="true" height="409" width="1342.9" x="-812.6" y="-651.7"></sliceSourceBounds>
		<optimizationSettings>
			<targetSettings  fileFormat="PNG24Format" targetSettingsID="0">
				<PNG24Format  filtered="false" interlaced="false" matteColor="#FFFFFF" noMatteColor="false" transparency="true">
					</PNG24Format>
			</targetSettings>
		</optimizationSettings>
	</sfw>
</metadata>
<g>
	<g>
		<path class="st0" d="M-874.7,421c-5.4-2-11.2-3.3-16.2-6c-19.4-10.2-28.9-32.8-23.9-54.2c6-25.8,15.9-49.7,30.7-71.6
			c25.4-37.5,59.4-64.1,101.9-79.7c1.4-0.5,2.7-1,4.1-1.5c0.2-0.1,0.4-0.3,0.7-0.6c-27.3-22-42.4-50.4-42.8-85.7
			c-0.4-30,10.3-56,31.4-77.3C-747.5,2.4-679.8,0.5-636.1,43c23.7,23.1,34.7,51.6,32.5,84.7c-2.1,32.8-17,59.2-42.9,79.9
			c2.8,1,5.2,1.8,7.5,2.7c8.4,3.4,12.5,11.9,9.7,20.1c-2.8,8.4-11.3,12.9-20.2,10.1c-13.5-4.3-27.1-8.2-41.3-9.9
			c-15.1-1.8-30.2-1.7-45.3,0.4c-27,3.8-51.8,13.4-74.3,28.8c-26.3,17.9-46.7,41.1-60,70c-5.4,11.9-9.2,24.5-12.9,37.1
			c-3.6,12.4,4.1,22,17.1,22.1c17.4,0.1,34.9,0,52.3,0c10,0,16.5,4.5,18.2,12.6c1.7,8.6-2.2,15.1-11.7,19.1c-0.1,0-0.2,0.2-0.3,0.3
			C-830,421-852.4,421-874.7,421z M-635.2,121.3c-0.3-42.1-32.8-76.7-76.2-77c-42.2-0.3-76.7,32.8-76.9,76.2
			c-0.2,42.6,33.2,75.7,74.3,76.8C-670.8,198.3-635.9,164.4-635.2,121.3z"/>
		<path class="st0" d="M-616,421c-4.3-1.6-8.8-2.8-12.9-4.8c-13.2-6.6-19.8-18.3-23.8-31.9c-1-3.4-2-6.9-2.8-10.4
			c-2.1-8.7,2.8-17,11.5-19.5c8.1-2.3,16.5,2.3,19.2,10.6c1.7,5,3,10.2,4.8,15.2c2.1,6.1,5.9,8.8,12.3,8.8c15.8,0.1,31.7,0,47.5,0
			c5.8,0,9.8-2.6,12-8.1c6.3-16,10.4-32.4,8-49.7c-1.4-10.7-4.4-21-8.9-30.9c-2.1-4.5-6.1-6.3-10.7-6.3c-16.1-0.1-32.2-0.1-48.3,0
			c-5.8,0-9.8,2.8-11.5,8.5c-1.4,4.7-3,9.3-4.4,14c-2.5,8.3-8,12.5-16.7,12.5c-35,0-70,0-105,0c-2.6,0-4.4,0.8-6.3,2.6
			c-3.1,3.1-6.6,5.8-10.9,9.5c5.1,4.6,9,8.3,13,11.7c1,0.8,2.7,1,4,1c13.7,0.1,27.4,0,41.1,0.1c9.8,0,16.8,6.6,16.9,15.8
			c0.1,9.4-6.9,16.1-16.9,16.1c-16.6,0-33.3-0.1-49.9,0c-5.1,0-9.4-1.6-12.9-5.2c-9.1-9.2-18.2-18.3-27.1-27.7
			c-6.8-7.1-6.9-15.9-0.1-23.2c8.7-9.3,17.7-18.4,26.7-27.5c3.5-3.6,7.8-5.2,12.9-5.2c32.9,0.1,65.7,0,98.6,0.1
			c3.9,0,5.4-1.3,6.6-4.8c7-20,21.9-30.4,43.2-30.4c15.7,0,31.4,0,47.1,0c19,0,34.1,10.3,41.2,27.8c5.2,12.7,9.2,25.7,10.4,39.5
			c0,0.5,0.4,0.9,0.7,1.4c0,6.9,0,13.8,0,20.8c-0.2,0.6-0.5,1.2-0.7,1.8c-2.2,10.1-3.9,20.3-6.8,30.1c-3.3,11.4-8,22.5-18.6,29.2
			c-5.7,3.6-12.4,5.6-18.6,8.4C-573.4,421-594.7,421-616,421z"/>
		<path class="st0" d="M-588.1,340.8c0.1-8.8,7.2-15.7,16.2-15.6c9,0.1,15.9,7.3,15.7,16.5c-0.2,8.8-7.4,15.6-16.4,15.4
			C-581.4,357-588.2,349.8-588.1,340.8z"/>
	</g>
</g>
<g>
	<path class="st0" d="M246.2,324c2.3,9.6,3.7,18.1,6.5,26.2c0.8,2.3,4.9,4.4,7.8,4.9c6.7,1.2,14.7-0.6,20.2,2.4
		c8.9,4.7,18.4,10.9,23.7,19c11.1,17,6.2,24.4-13.9,24.4c-50.5,0-101,0-151.5,0c-13,0-15.5-3.3-12.2-15.7
		c4.5-17.4,18.8-28.9,37.2-29.8c5.7-0.3,11.5,0,17.6,0c2.6-10.4,4.9-19.8,7.6-30.6c-4.4-0.3-8.1-0.6-11.8-0.7
		c-48.3,0-96.6,0-144.9,0c-18.3,0-24-5.8-24-24.3c0-81.4,0-162.7,0-244.1c0-17.9,5.5-23.5,23.3-23.5c123.9,0,247.7,0,371.6,0
		c18.1,0,23.3,5.2,23.3,23.2c0,81.7,0,163.5,0,245.2c0,17.7-5.7,23.5-23.5,23.5c-47.9,0.1-95.9,0-143.8,0
		C255.3,324,251.4,324,246.2,324z M48.7,74.5c0,63.3,0,126,0,188.5c113.2,0,225.6,0,338,0c0-63.2,0-125.6,0-188.5
		C274.1,74.5,162,74.5,48.7,74.5z M21.4,277.5c0,6.3,0,12,0,17.7c0,15.9,0,15.9,16.3,15.9c120.2,0,240.4,0,360.6,0
		c2.9,0,6.2,0.8,8.6-0.3c2.7-1.2,6.3-4.1,6.5-6.5c0.8-8.9,0.3-17.8,0.3-26.9C282.3,277.5,152.4,277.5,21.4,277.5z M35.1,263.4
		c0-5.1,0-9.4,0-13.7c0-58.1,0-116.3,0-174.4c0-13.4,1-14.3,14.2-14.3c112.3,0,224.5,0,336.8,0c13.5,0,14.2,0.8,14.2,14.3
		c0,58.9,0,117.7,0,176.6c0,3.9,0,7.7,0,12.2c5.4-0.3,9.1-0.5,13.4-0.7c0-4,0-6.9,0-9.8c0-65.4-0.3-130.8,0.3-196.2
		c0.1-10.6-3.6-12.6-13.1-12.6C278.7,45,156.7,45,34.6,44.7c-10.6,0-13.5,3.2-13.5,13.6c0.4,64.7,0.2,129.3,0.2,194
		c0,3.5,0.3,7.1,0.5,11.1C26.2,263.4,29.7,263.4,35.1,263.4z M140.7,387c51.8,0,103,0,155,0c-5-12.4-13.4-18.5-25.4-18.6
		c-35.2-0.3-70.3-0.3-105.5,0C152.5,368.5,144.9,374.7,140.7,387z M238.9,354.7c-1.7-29.3-4-31.5-31.5-30.6c-1.4,0-2.8,0.4-4.8,0.8
		c-2.4,9.7-4.8,19.4-7.4,29.8C210,354.7,223.9,354.7,238.9,354.7z"/>
</g>
</svg>
