<?xml version="1.0" encoding="utf-8"?>
<!-- Generator: Adobe Illustrator 25.2.1, SVG Export Plug-In . SVG Version: 6.00 Build 0)  -->
<!DOCTYPE svg PUBLIC "-//W3C//DTD SVG 1.1//EN" "http://www.w3.org/Graphics/SVG/1.1/DTD/svg11.dtd" [
	<!ENTITY ns_extend "http://ns.adobe.com/Extensibility/1.0/">
	<!ENTITY ns_ai "http://ns.adobe.com/AdobeIllustrator/10.0/">
	<!ENTITY ns_graphs "http://ns.adobe.com/Graphs/1.0/">
	<!ENTITY ns_vars "http://ns.adobe.com/Variables/1.0/">
	<!ENTITY ns_imrep "http://ns.adobe.com/ImageReplacement/1.0/">
	<!ENTITY ns_sfw "http://ns.adobe.com/SaveForWeb/1.0/">
	<!ENTITY ns_custom "http://ns.adobe.com/GenericCustomNamespace/1.0/">
	<!ENTITY ns_adobe_xpath "http://ns.adobe.com/XPath/1.0/">
]>
<svg version="1.1" id="Capa_1" xmlns:x="&ns_extend;" xmlns:i="&ns_ai;" xmlns:graph="&ns_graphs;"
	 xmlns="http://www.w3.org/2000/svg" xmlns:xlink="http://www.w3.org/1999/xlink" x="0px" y="0px" viewBox="0 0 435.1 433"
	 style="enable-background:new 0 0 435.1 433;" xml:space="preserve">
<style type="text/css">
	.st0{fill:#04474D;}
	.st1{stroke:#3BACB6;stroke-width:24;stroke-linecap:round;stroke-miterlimit:10;}
</style>
<metadata>
	<sfw  xmlns="&ns_sfw;">
		<slices></slices>
		<sliceSourceBounds  bottomLeftOrigin="true" height="397.6" width="1100.5" x="-580.5" y="-647.5"></sliceSourceBounds>
		<optimizationSettings>
			<targetSettings  fileFormat="PNG24Format" targetSettingsID="0">
				<PNG24Format  filtered="false" interlaced="false" matteColor="#FFFFFF" noMatteColor="false" transparency="true">
					</PNG24Format>
			</targetSettings>
		</optimizationSettings>
	</sfw>
</metadata>
<g>
	<path class="st0" d="M-328.7,20.1c17.4,0.1,28.9,13.2,26.6,28c-0.7,4.3-2.3,8.6-3.9,12.7c-32.6,85.4-65.3,170.9-97.9,256.3
		c-4.9,12.8-12.7,18.7-24.2,18.8c-11.2,0.1-19.6-6-24.1-17.7c-12.8-32.6-25.6-65.2-38.1-98c-2.2-5.7-5.3-9.1-11.2-11.3
		c-32.2-12.2-64.2-24.9-96.3-37.4c-13.6-5.3-19.4-12.6-19.4-24.7c0-12,5.9-19.6,19.3-24.8c85.7-32.8,171.4-65.6,257.1-98.3
		C-336.1,22-331.2,20.8-328.7,20.1z M-429.4,300.2c0.7,0.1,1.4,0.1,2.2,0.2c31.6-82.7,63.2-165.4,95.7-250.3
		c-85.1,32.6-167.7,64.1-250.3,95.7c30.3,13.8,60.1,25.5,90.1,36.9c2.2,0.8,6.3-0.6,8.1-2.3c11-10.5,21.6-21.4,32.4-32
		c7.8-7.8,15.6-8.4,21.9-2.1c5.9,6,5.1,14.4-2.4,21.9c-10.3,10.4-20.7,20.5-30.8,31.1c-1.8,1.9-3.5,5.9-2.7,8
		C-453.6,238.3-441.4,269.2-429.4,300.2z"/>
	<line class="st1" x1="-672.1" y1="283.8" x2="-595.4" y2="208.9"/>
	<line class="st1" x1="-672.1" y1="384.3" x2="-524" y2="237.3"/>
	<line class="st1" x1="-570.4" y1="384.3" x2="-494.8" y2="307.7"/>
</g>
<path d="M218.3,19.2C108.6,19,18.8,108.2,18.7,217.4c-0.1,109.6,89.1,199.3,198.5,199.4c109.6,0.1,199.2-89.2,199.3-198.6
	C416.4,109,327.2,19.4,218.3,19.2z M218,44.6c45.3,0.4,79.1,34.6,79,79.9c-0.1,45.4-34,79.3-79.4,79.3c-45.8,0-79.9-34.4-79.5-80.2
	C138.4,78.4,173.1,44.2,218,44.6z M62.6,308.6c-10.3-12.8-10.8-19-2-33.3c10-16.4,25.4-26.6,42.1-34.7
	c36.2-17.6,74.5-26.6,119.6-27.8c46.5,3.3,95.7,13.1,137.5,45.6c4.4,3.4,8.3,7.8,11.7,12.3c12.4,16.7,12,25-1.4,41
	C287.7,409.8,143.2,408.4,62.6,308.6z"/>
</svg>
