<?xml version="1.0" encoding="utf-8"?>
<!-- Generator: Adobe Illustrator 25.2.1, SVG Export Plug-In . SVG Version: 6.00 Build 0)  -->
<!DOCTYPE svg PUBLIC "-//W3C//DTD SVG 1.1//EN" "http://www.w3.org/Graphics/SVG/1.1/DTD/svg11.dtd" [
	<!ENTITY ns_extend "http://ns.adobe.com/Extensibility/1.0/">
	<!ENTITY ns_ai "http://ns.adobe.com/AdobeIllustrator/10.0/">
	<!ENTITY ns_graphs "http://ns.adobe.com/Graphs/1.0/">
	<!ENTITY ns_vars "http://ns.adobe.com/Variables/1.0/">
	<!ENTITY ns_imrep "http://ns.adobe.com/ImageReplacement/1.0/">
	<!ENTITY ns_sfw "http://ns.adobe.com/SaveForWeb/1.0/">
	<!ENTITY ns_custom "http://ns.adobe.com/GenericCustomNamespace/1.0/">
	<!ENTITY ns_adobe_xpath "http://ns.adobe.com/XPath/1.0/">
]>
<svg version="1.1" id="Capa_1" xmlns:x="&ns_extend;" xmlns:i="&ns_ai;" xmlns:graph="&ns_graphs;"
	 xmlns="http://www.w3.org/2000/svg" xmlns:xlink="http://www.w3.org/1999/xlink" x="0px" y="0px" viewBox="0 0 259 341"
	 style="enable-background:new 0 0 259 341;" xml:space="preserve">
<style type="text/css">
	.st0{fill:#71692A;}
</style>
<metadata>
	<sfw  xmlns="&ns_sfw;">
		<slices></slices>
		<sliceSourceBounds  bottomLeftOrigin="true" height="640.4" width="778.2" x="-367" y="-785"></sliceSourceBounds>
	</sfw>
</metadata>
<g>
	<g>
		<path class="st0" d="M157.5,163.5c-18.8,15.1-37.1,15.4-55.9,0.1c-0.7,4.8-1.5,8.7-1.7,12.5c-0.3,3.9-1.9,6.2-5.5,8
			c-18.9,9.1-37.5,18.6-56.4,27.7c-4.6,2.2-6.7,5.2-6.6,10.5c0.2,17.8,0.2,35.7,0,53.5c0,3.9,1.3,5.5,4.8,6.7
			c14.2,4.9,28.2,10.1,42.3,15.1c0.9,0.3,2.2,0.4,2.7,1.1c1.3,1.8,3.4,3.9,3.2,5.7c-0.3,3-3.2,3.4-5.9,2.5c-1.3-0.4-2.5-0.9-3.8-1.3
			c-15.5-5.6-31-11.3-46.5-16.8c-3.9-1.4-5.6-3.4-5.6-7.6c0.1-20.2,0.1-40.3,0.1-60.5c0-7.4,3.2-12.5,10-15.8
			c18.3-9,36.5-18.2,54.7-27.6c1.7-0.9,2.6-3.4,3.8-5.2c0.3-0.5,0.3-1.3,0.5-1.9c2-8.3,2.1-15.7-4.3-23.1c-4.7-5.3-7-12.8-10.7-19.1
			c-1-1.8-2.7-3.7-4.6-4.4c-4.7-2-7.2-5.4-7.3-10.4c-0.1-7-0.1-14,0-21c0-1.6,0.1-3.8,1.2-4.7c4.3-3.9,3.4-9.1,3.9-13.9
			c3-28.7,26.5-50,55.3-50.3c9.4-0.1,18.7,0,27.6,3.5c21.8,8.4,35.6,28.1,36.4,51.5c0.1,2.4,1.2,5,2.5,7.1
			c2.9,4.6,3.4,29.8,0.2,34.1c-1,1.3-2.3,2.9-3.7,3.1c-4.6,0.8-5.5,4.4-7.3,7.8c-4.1,7.6-8.9,14.8-13,22.4c-1.3,2.3-2.3,5.2-2,7.7
			c2.5,17.6-0.8,14.3,16.3,22.4c15.3,7.3,30.4,15.1,45.5,22.8c5.4,2.7,8.3,7.3,8.3,13.3c0.1,21.2,0.2,42.3-0.1,63.5
			c0,2-2.3,5-4.2,5.7c-16.8,6.4-33.8,12.4-50.7,18.5c-2.8,1-5.5,1.2-6.7-2c-1.4-3.6,1-5.1,4-6.2c15-5.4,30.1-10.9,45.1-16.2
			c2.9-1,4.1-2.4,4.1-5.7c-0.2-18.5-0.2-37,0-55.5c0-4.3-1.8-6.9-5.5-8.6c-11.4-5.5-22.8-10.9-34.1-16.5c-8.4-4.1-16.6-8.5-25-12.6
			c-4.3-2.1-3.9-6.2-4.5-9.9C158,170.6,157.9,167.6,157.5,163.5z M92.6,64.7c-1.3,5.2-2.8,9.7-3.7,14.4c-1.6,8.9-2.9,10.1-11.8,11.1
			c-1.3,0.2-3.4,2.1-3.5,3.3c-0.4,6.1-0.3,12.3-0.1,18.5c0,1.1,1.3,3.1,2.2,3.2c5.1,0.8,7,4.3,8.7,8.5c5.5,13.6,13.1,25.8,24.9,35
			c13,10.1,27.4,10.1,40.4-0.1c11.9-9.3,19.5-21.7,25-35.5c1.6-3.9,3.6-7,8.1-7.9c1-0.2,2.4-2.2,2.5-3.4c0.3-6,0-12,0.2-18
			c0.1-2.8-1.1-3.7-3.8-3.9c-8.6-0.5-10-2.1-11.6-10.5c-0.9-4.9-2.5-9.7-3.8-14.8C137.4,82.2,123.3,82.2,92.6,64.7z M78.5,80.2
			c0.4,0,0.9,0.1,1.3,0.1c0.3-1.6,0.3-3.3,0.8-4.8c2.2-5.9,4-12,7-17.4c3-5.2,5.8-5.1,10.5-1.1c18.8,16.1,44,16,62.9-0.2
			c4.3-3.7,7.3-3.9,10.1,1.1c3.2,5.8,5,12.5,7.4,18.8c0.4,1.2,0.6,2.4,0.9,3.6c1.2-16.4-5.1-29.3-17.7-39.2
			c-10.8-8.4-23.3-9.8-36.4-9.4c-17,0.5-30,7.7-39.4,21.7C80.5,61.6,78.3,70.6,78.5,80.2z"/>
		<path class="st0" d="M97,311c2.8-16.7,5.4-32,8-47.3c3.1-18,6.2-36.1,9.4-54.1c0.6-3.4-0.1-5.4-3.1-7.4c-3.3-2.1-6-5.2-9-7.8
			c-2.2-1.9-2.9-4.2-0.8-6.5c2.2-2.5,4.6-2,7,0c5.7,5,11.7,9.8,17.3,15c2.9,2.6,4.7,2.7,7.8-0.1c5.8-5.5,12.1-10.4,18.5-15.1
			c1.3-1,4,0,6.1,0c-0.2,2.1,0.3,4.9-0.8,6.3c-2.7,3.1-6.1,5.6-9.4,8.1c-2.6,2-3.7,4.1-3.1,7.6c5.6,32,11,64,16.6,95.9
			c0.9,5.3-0.1,9.1-4.3,12.8c-7.4,6.2-14.2,13.1-21.4,19.6c-4.6,4.2-7.5,4.2-12.1,0c-7.6-7-15.3-13.9-22.7-21.1
			C98.9,315,97.9,312.3,97,311z M129.5,331.6c6.7-6.2,12.8-12.3,19.5-17.8c3.5-2.9,4.1-5.8,3.3-9.9c-3.4-18.8-6.5-37.7-9.8-56.6
			c-2-11.6-4.1-23.1-6.4-36.3c-4.5,6.8-8.8,5.3-13.3,0.6c-5.6,32.6-11,64-16.3,95.5c-0.2,1.4,0.6,3.6,1.7,4.6
			C115,318.4,122.1,324.7,129.5,331.6z"/>
		<path class="st0" d="M171.3,240.9c-1-1.1-3.5-2.6-3.5-4.1c0-1.6,2.2-4.3,3.8-4.6c12-2,24.1-3.6,36.1-4.9c1.5-0.2,3.3,2.3,5,3.5
			c-1.2,1.5-2.2,4.2-3.6,4.4C197,237.3,184.8,238.9,171.3,240.9z"/>
	</g>
</g>
<image style="overflow:visible;" width="238" height="401" xlink:href="5EE1B5DC.jpg"  transform="matrix(1.5969 0 0 1.5969 -542 -69.3682)">
</image>
</svg>
