<?xml version="1.0" encoding="utf-8"?>
<!-- Generator: Adobe Illustrator 25.2.1, SVG Export Plug-In . SVG Version: 6.00 Build 0)  -->
<!DOCTYPE svg PUBLIC "-//W3C//DTD SVG 1.1//EN" "http://www.w3.org/Graphics/SVG/1.1/DTD/svg11.dtd" [
	<!ENTITY ns_extend "http://ns.adobe.com/Extensibility/1.0/">
	<!ENTITY ns_ai "http://ns.adobe.com/AdobeIllustrator/10.0/">
	<!ENTITY ns_graphs "http://ns.adobe.com/Graphs/1.0/">
	<!ENTITY ns_vars "http://ns.adobe.com/Variables/1.0/">
	<!ENTITY ns_imrep "http://ns.adobe.com/ImageReplacement/1.0/">
	<!ENTITY ns_sfw "http://ns.adobe.com/SaveForWeb/1.0/">
	<!ENTITY ns_custom "http://ns.adobe.com/GenericCustomNamespace/1.0/">
	<!ENTITY ns_adobe_xpath "http://ns.adobe.com/XPath/1.0/">
]>
<svg version="1.1" id="Capa_1" xmlns:x="&ns_extend;" xmlns:i="&ns_ai;" xmlns:graph="&ns_graphs;"
	 xmlns="http://www.w3.org/2000/svg" xmlns:xlink="http://www.w3.org/1999/xlink" x="0px" y="0px" viewBox="0 0 306.7 294.1"
	 style="enable-background:new 0 0 306.7 294.1;" xml:space="preserve">
<style type="text/css">
	.st0{fill:#009FE3;}
</style>
<metadata>
	<sfw  xmlns="&ns_sfw;">
		<slices></slices>
		<sliceSourceBounds  bottomLeftOrigin="true" height="255.9" width="256.3" x="179.8" y="-543.5"></sliceSourceBounds>
	</sfw>
</metadata>
<path class="st0" d="M142.7,269.6c-25.5,0-51,0-76.5,0c-16,0-30.4-13.6-30.4-29.7c-0.2-51-0.2-102,0-153.1
	C35.8,70.6,50.3,56.7,67,56.6c28.3-0.2,56.7-0.1,85,0c6.8,0,11.5,4.4,11.6,10.5c0.2,6.4-4.3,10.9-11.6,11c-15.3,0.2-30.7,0.1-46,0.1
	c-12.2,0-24.3-0.1-36.5,0C60.9,78.2,57,82,57,90.6c0,48.5,0,97,0,145.6c0,8.6,4,12.5,12.6,12.5c48.5,0,97,0,145.5,0
	c8.6,0,12.6-3.9,12.6-12.5c0-27.5,0-55,0-82.5c0-7.7,5.4-12.5,12.4-11.4c5.4,0.9,8.7,4.8,8.8,10.9c0.1,10.8,0,21.7,0,32.5
	c0,17.5,0.1,35-0.1,52.5c-0.2,14.9-9.4,26.8-23.3,30.6c-2,0.6-4.3,0.7-6.4,0.7C193.7,269.6,168.2,269.6,142.7,269.6z"/>
<path class="st0" d="M257.2,86.2c-0.7,0.8-1.7,1.9-2.8,2.9c-26.2,26.2-52.3,52.4-78.5,78.4c-2,2-4.8,3.7-7.5,4.3
	c-11,2.5-22.1,4.6-33.2,6.7c-7,1.3-9.5-1.3-8.1-8.1c2.2-11.1,4.3-22.2,6.7-33.2c0.5-2.2,1.5-4.5,3-6.1
	c27.1-27.3,54.4-54.5,81.6-81.7c0.5-0.5,1-0.8,1.4-1.1C232.2,60.9,244.5,73.4,257.2,86.2z"/>
<path class="st0" d="M269.7,74c-12.9-12.8-25.2-25.1-38.2-38.1c6.4-5.9,12.6-12.8,19.9-18c10.4-7.3,24.8-4.7,33.5,4.9
	c8.5,9.3,9.5,23.5,1.6,33.4C281.4,62.6,275.4,68.1,269.7,74z"/>
</svg>
