<?xml version="1.0" encoding="utf-8"?>
<!-- Generator: Adobe Illustrator 25.2.1, SVG Export Plug-In . SVG Version: 6.00 Build 0)  -->
<!DOCTYPE svg PUBLIC "-//W3C//DTD SVG 1.1//EN" "http://www.w3.org/Graphics/SVG/1.1/DTD/svg11.dtd" [
	<!ENTITY ns_extend "http://ns.adobe.com/Extensibility/1.0/">
	<!ENTITY ns_ai "http://ns.adobe.com/AdobeIllustrator/10.0/">
	<!ENTITY ns_graphs "http://ns.adobe.com/Graphs/1.0/">
	<!ENTITY ns_vars "http://ns.adobe.com/Variables/1.0/">
	<!ENTITY ns_imrep "http://ns.adobe.com/ImageReplacement/1.0/">
	<!ENTITY ns_sfw "http://ns.adobe.com/SaveForWeb/1.0/">
	<!ENTITY ns_custom "http://ns.adobe.com/GenericCustomNamespace/1.0/">
	<!ENTITY ns_adobe_xpath "http://ns.adobe.com/XPath/1.0/">
]>
<svg version="1.1" id="Capa_1" xmlns:x="&ns_extend;" xmlns:i="&ns_ai;" xmlns:graph="&ns_graphs;"
	 xmlns="http://www.w3.org/2000/svg" xmlns:xlink="http://www.w3.org/1999/xlink" x="0px" y="0px" viewBox="0 0 435.1 433"
	 style="enable-background:new 0 0 435.1 433;" xml:space="preserve">
<style type="text/css">
	.st0{fill:#04474D;}
	.st1{stroke:#3BACB6;stroke-width:24;stroke-linecap:round;stroke-miterlimit:10;}
	.st2{fill:#04474D;stroke:#04474D;stroke-width:10;stroke-miterlimit:10;}
	.st3{fill:#04474D;stroke:#04474D;stroke-miterlimit:10;}
	.st4{fill:#FFFFFF;stroke:#3BACB6;stroke-width:15;stroke-linecap:round;stroke-miterlimit:10;}
</style>
<metadata>
	<sfw  xmlns="&ns_sfw;">
		<slices></slices>
		<sliceSourceBounds  bottomLeftOrigin="true" height="411.8" width="1044.2" x="-580.5" y="-653.1"></sliceSourceBounds>
		<optimizationSettings>
			<targetSettings  fileFormat="PNG24Format" targetSettingsID="0">
				<PNG24Format  filtered="false" interlaced="false" matteColor="#FFFFFF" noMatteColor="false" transparency="true">
					</PNG24Format>
			</targetSettings>
		</optimizationSettings>
	</sfw>
</metadata>
<g>
	<path class="st0" d="M-328.7,20.1c17.4,0.1,28.9,13.2,26.6,28c-0.7,4.3-2.3,8.6-3.9,12.7c-32.6,85.4-65.3,170.9-97.9,256.3
		c-4.9,12.8-12.7,18.7-24.2,18.8c-11.2,0.1-19.6-6-24.1-17.7c-12.8-32.6-25.6-65.2-38.1-98c-2.2-5.7-5.3-9.1-11.2-11.3
		c-32.2-12.2-64.2-24.9-96.3-37.4c-13.6-5.3-19.4-12.6-19.4-24.7c0-12,5.9-19.6,19.3-24.8c85.7-32.8,171.4-65.6,257.1-98.3
		C-336.1,22-331.2,20.8-328.7,20.1z M-429.4,300.2c0.7,0.1,1.4,0.1,2.2,0.2c31.6-82.7,63.2-165.4,95.7-250.3
		c-85.1,32.6-167.7,64.1-250.3,95.7c30.3,13.8,60.1,25.5,90.1,36.9c2.2,0.8,6.3-0.6,8.1-2.3c11-10.5,21.6-21.4,32.4-32
		c7.8-7.8,15.6-8.4,21.9-2.1c5.9,6,5.1,14.4-2.4,21.9c-10.3,10.4-20.7,20.5-30.8,31.1c-1.8,1.9-3.5,5.9-2.7,8
		C-453.6,238.3-441.4,269.2-429.4,300.2z"/>
	<line class="st1" x1="-672.1" y1="283.8" x2="-595.4" y2="208.9"/>
	<line class="st1" x1="-672.1" y1="384.3" x2="-524" y2="237.3"/>
	<line class="st1" x1="-570.4" y1="384.3" x2="-494.8" y2="307.7"/>
</g>
<path class="st2" d="M80.1,239.5c0-44.8-0.2-89.7,0-134.5c0.2-31.3,11.3-42.3,41.6-44.7c8.2-0.7,16.2-5.6,24.1-9
	c4.1-1.8,7.7-6.4,11.7-6.6C176.1,44,189.8,38.6,203,23c11.2-13.3,28.7-7.1,41.5,6.8c5.6,6.1,14.8,9.3,22.8,12.8
	c5.4,2.4,11.7,2.5,17.3,4.4c13.7,4.6,27.1,10.1,41,14.3c18.1,5.4,29.2,16.4,29.2,35.7c0.3,94.2,0.4,188.4-0.1,282.7
	c-0.1,22-15.4,37.1-37.6,37.3c-66,0.6-132,0.6-198,0c-25-0.2-38.6-14.8-38.8-40.7C79.8,330.7,80.1,285.1,80.1,239.5z M119.6,92
	c0,93.5,0,182.8,0,273.4c65.5,0,129.6,0,194.8,0c0-90.9,0-180.7,0-272.4C248.9,122.8,185.4,120.7,119.6,92z M110.7,87.4
	c5.2-1.4,7.6-1.6,9.4-2.7c4.6-2.5,9-5.4,13.4-8.2c-5.4-2.5-10.9-7.3-16.2-7.2c-20.7,0.5-29.1,13.3-29.1,33c0,90.5-0.2,181,0.1,271.5
	c0.1,24.6,9.9,34.2,35,34.3c62.3,0.3,124.5,0.3,186.8,0c26.8-0.1,35.6-8.9,35.8-35.5c0.3-53.2,0.1-106.5,0.1-159.7
	c0-37.3,0.3-74.5-0.2-111.8c-0.3-21.5-11.4-33.2-29.7-31.9c-4.1,0.3-7.9,4.4-11.9,6.8c2.7,2.8,5.6,5.5,8,8.5
	c4.3,5.6,11.8,11.4,11.9,17.2c0.8,85.2,0.4,170.3,0.7,255.5c0,12.4-3.9,17.7-17,17.6c-60-0.4-120-0.5-180,0.1
	c-14.9,0.1-17.7-6.8-17.4-19.5c0.6-27.4,0.2-54.8,0.2-82.1C110.7,211.7,110.7,150.2,110.7,87.4z M216,102.9c0,0.1,0,0.1,0,0.2
	c16,0,31.9-0.2,47.9,0c17.8,0.2,30.6-6.8,30.5-25.8c-0.1-18.8-12.7-26.7-30.5-25.9c-12.2,0.5-20.4-1.6-26.6-14.7
	c-7-14.9-27.2-17.2-33.2-3.7C196,51,183.6,51.4,168,51.7c-16.6,0.3-25,10.8-24.5,26.7c0.4,15,9.2,23.9,24.6,24.4
	C184.1,103.2,200.1,102.9,216,102.9z"/>
<ellipse class="st3" cx="218.8" cy="89" rx="77.8" ry="2.6"/>
<line class="st4" x1="217.1" y1="172.9" x2="217.1" y2="300.8"/>
<line class="st4" x1="154.8" y1="236.9" x2="273.8" y2="236.9"/>
</svg>
