<?xml version="1.0" encoding="utf-8"?>
<!-- Generator: Adobe Illustrator 25.2.1, SVG Export Plug-In . SVG Version: 6.00 Build 0)  -->
<!DOCTYPE svg PUBLIC "-//W3C//DTD SVG 1.1//EN" "http://www.w3.org/Graphics/SVG/1.1/DTD/svg11.dtd" [
	<!ENTITY ns_extend "http://ns.adobe.com/Extensibility/1.0/">
	<!ENTITY ns_ai "http://ns.adobe.com/AdobeIllustrator/10.0/">
	<!ENTITY ns_graphs "http://ns.adobe.com/Graphs/1.0/">
	<!ENTITY ns_vars "http://ns.adobe.com/Variables/1.0/">
	<!ENTITY ns_imrep "http://ns.adobe.com/ImageReplacement/1.0/">
	<!ENTITY ns_sfw "http://ns.adobe.com/SaveForWeb/1.0/">
	<!ENTITY ns_custom "http://ns.adobe.com/GenericCustomNamespace/1.0/">
	<!ENTITY ns_adobe_xpath "http://ns.adobe.com/XPath/1.0/">
]>
<svg version="1.1" id="Capa_1" xmlns:x="&ns_extend;" xmlns:i="&ns_ai;" xmlns:graph="&ns_graphs;"
	 xmlns="http://www.w3.org/2000/svg" xmlns:xlink="http://www.w3.org/1999/xlink" x="0px" y="0px" viewBox="0 0 435.1 433"
	 style="enable-background:new 0 0 435.1 433;" xml:space="preserve">
<style type="text/css">
	.st0{fill:#04474D;}
	.st1{stroke:#3BACB6;stroke-width:24;stroke-linecap:round;stroke-miterlimit:10;}
</style>
<metadata>
	<sfw  xmlns="&ns_sfw;">
		<slices></slices>
		<sliceSourceBounds  bottomLeftOrigin="true" height="376.2" width="382.4" x="137" y="-638.4"></sliceSourceBounds>
		<optimizationSettings>
			<targetSettings  fileFormat="PNG24Format" targetSettingsID="0">
				<PNG24Format  filtered="false" interlaced="false" matteColor="#FFFFFF" noMatteColor="false" transparency="true">
					</PNG24Format>
			</targetSettings>
		</optimizationSettings>
	</sfw>
</metadata>
<g>
	<path class="st0" d="M388.9,31.5c17.4,0.1,28.9,13.2,26.6,28c-0.7,4.3-2.3,8.6-3.9,12.7c-32.6,85.4-65.3,170.9-97.9,256.3
		c-4.9,12.8-12.7,18.7-24.2,18.8c-11.2,0.1-19.6-6-24.1-17.7c-12.8-32.6-25.6-65.2-38.1-98c-2.2-5.7-5.3-9.1-11.2-11.3
		c-32.2-12.2-64.2-24.9-96.3-37.4c-13.6-5.3-19.4-12.6-19.4-24.7c0-12,5.9-19.6,19.3-24.8c85.7-32.8,171.4-65.6,257.1-98.3
		C381.5,33.4,386.4,32.3,388.9,31.5z M288.2,311.6c0.7,0.1,1.4,0.1,2.2,0.2C322,229.1,353.6,146.4,386,61.4
		c-85.1,32.6-167.7,64.1-250.3,95.7c30.3,13.8,60.1,25.5,90.1,36.9c2.2,0.8,6.3-0.6,8.1-2.3c11-10.5,21.6-21.4,32.4-32
		c7.8-7.8,15.6-8.4,21.9-2.1c5.9,6,5.1,14.4-2.4,21.9c-10.3,10.4-20.7,20.5-30.8,31.1c-1.8,1.9-3.5,5.9-2.7,8
		C264,249.7,276.1,280.6,288.2,311.6z"/>
	<line class="st1" x1="45.4" y1="295.2" x2="122.2" y2="220.3"/>
	<line class="st1" x1="45.4" y1="395.7" x2="193.6" y2="248.7"/>
	<line class="st1" x1="147.2" y1="395.7" x2="222.8" y2="319.2"/>
</g>
</svg>
