<?xml version="1.0" encoding="utf-8"?>
<!-- Generator: Adobe Illustrator 25.2.1, SVG Export Plug-In . SVG Version: 6.00 Build 0)  -->
<!DOCTYPE svg PUBLIC "-//W3C//DTD SVG 1.1//EN" "http://www.w3.org/Graphics/SVG/1.1/DTD/svg11.dtd" [
	<!ENTITY ns_extend "http://ns.adobe.com/Extensibility/1.0/">
	<!ENTITY ns_ai "http://ns.adobe.com/AdobeIllustrator/10.0/">
	<!ENTITY ns_graphs "http://ns.adobe.com/Graphs/1.0/">
	<!ENTITY ns_vars "http://ns.adobe.com/Variables/1.0/">
	<!ENTITY ns_imrep "http://ns.adobe.com/ImageReplacement/1.0/">
	<!ENTITY ns_sfw "http://ns.adobe.com/SaveForWeb/1.0/">
	<!ENTITY ns_custom "http://ns.adobe.com/GenericCustomNamespace/1.0/">
	<!ENTITY ns_adobe_xpath "http://ns.adobe.com/XPath/1.0/">
]>
<svg version="1.1" id="Capa_1" xmlns:x="&ns_extend;" xmlns:i="&ns_ai;" xmlns:graph="&ns_graphs;"
	 xmlns="http://www.w3.org/2000/svg" xmlns:xlink="http://www.w3.org/1999/xlink" x="0px" y="0px" viewBox="0 0 435.1 433"
	 style="enable-background:new 0 0 435.1 433;" xml:space="preserve">
<style type="text/css">
	.st0{fill:#71692A;}
</style>
<metadata>
	<sfw  xmlns="&ns_sfw;">
		<slices></slices>
		<sliceSourceBounds  bottomLeftOrigin="true" height="409" width="408.8" x="116.7" y="-652"></sliceSourceBounds>
	</sfw>
</metadata>
<g>
	<g>
		<path class="st0" d="M54.6,421.3c-5.4-2-11.2-3.3-16.2-6C19,405.1,9.5,382.6,14.5,361.1c6-25.8,15.9-49.7,30.7-71.6
			c25.4-37.5,59.4-64.1,101.9-79.7c1.4-0.5,2.7-1,4.1-1.5c0.2-0.1,0.4-0.3,0.7-0.6c-27.3-22-42.4-50.4-42.8-85.7
			c-0.4-30,10.3-56,31.4-77.3c41.5-41.9,109.2-43.9,152.8-1.3c23.7,23.1,34.7,51.6,32.5,84.7c-2.1,32.8-17,59.2-42.9,79.9
			c2.8,1,5.2,1.8,7.5,2.7c8.4,3.4,12.5,11.9,9.7,20.1c-2.8,8.4-11.3,12.9-20.2,10.1c-13.5-4.3-27.1-8.2-41.3-9.9
			c-15.1-1.8-30.2-1.7-45.3,0.4c-27,3.8-51.8,13.4-74.3,28.8c-26.3,17.9-46.7,41.1-60,70c-5.4,11.9-9.2,24.5-12.9,37.1
			c-3.6,12.4,4.1,22,17.1,22.1c17.4,0.1,34.9,0,52.3,0c10,0,16.5,4.5,18.2,12.6c1.7,8.6-2.2,15.1-11.7,19.1c-0.1,0-0.2,0.2-0.3,0.3
			C99.3,421.3,77,421.3,54.6,421.3z M294.1,121.6c-0.3-42.1-32.8-76.7-76.2-77c-42.2-0.3-76.7,32.8-76.9,76.2
			c-0.2,42.6,33.2,75.7,74.3,76.8C258.6,198.6,293.4,164.7,294.1,121.6z"/>
		<path class="st0" d="M313.3,421.3c-4.3-1.6-8.8-2.8-12.9-4.8c-13.2-6.6-19.8-18.3-23.8-31.9c-1-3.4-2-6.9-2.8-10.4
			c-2.1-8.7,2.8-17,11.5-19.5c8.1-2.3,16.5,2.3,19.2,10.6c1.7,5,3,10.2,4.8,15.2c2.1,6.1,5.9,8.8,12.3,8.8c15.8,0.1,31.7,0,47.5,0
			c5.8,0,9.8-2.6,12-8.1c6.3-16,10.4-32.4,8-49.7c-1.4-10.7-4.4-21-8.9-30.9c-2.1-4.5-6.1-6.3-10.7-6.3c-16.1-0.1-32.2-0.1-48.3,0
			c-5.8,0-9.8,2.8-11.5,8.5c-1.4,4.7-3,9.3-4.4,14c-2.5,8.3-8,12.5-16.7,12.5c-35,0-70,0-105,0c-2.6,0-4.4,0.8-6.3,2.6
			c-3.1,3.1-6.6,5.8-10.9,9.5c5.1,4.6,9,8.3,13,11.7c1,0.8,2.7,1,4,1c13.7,0.1,27.4,0,41.1,0.1c9.8,0,16.8,6.6,16.9,15.8
			c0.1,9.4-6.9,16.1-16.9,16.1c-16.6,0-33.3-0.1-49.9,0c-5.1,0-9.4-1.6-12.9-5.2c-9.1-9.2-18.2-18.3-27.1-27.7
			c-6.8-7.1-6.9-15.9-0.1-23.2c8.7-9.3,17.7-18.4,26.7-27.5c3.5-3.6,7.8-5.2,12.9-5.2c32.9,0.1,65.7,0,98.6,0.1
			c3.9,0,5.4-1.3,6.6-4.8c7-20,21.9-30.4,43.2-30.4c15.7,0,31.4,0,47.1,0c19,0,34.1,10.3,41.2,27.8c5.2,12.7,9.2,25.7,10.4,39.5
			c0,0.5,0.4,0.9,0.7,1.4c0,6.9,0,13.8,0,20.8c-0.2,0.6-0.5,1.2-0.7,1.8c-2.2,10.1-3.9,20.3-6.8,30.1c-3.3,11.4-8,22.5-18.6,29.2
			c-5.7,3.6-12.4,5.6-18.6,8.4C355.9,421.3,334.6,421.3,313.3,421.3z"/>
		<path class="st0" d="M341.3,341.1c0.1-8.8,7.2-15.7,16.2-15.6c9,0.1,15.9,7.3,15.7,16.5c-0.2,8.8-7.4,15.6-16.4,15.4
			C348,357.3,341.2,350.1,341.3,341.1z"/>
	</g>
</g>
</svg>
