<?xml version="1.0" encoding="utf-8"?>
<!-- Generator: Adobe Illustrator 25.2.1, SVG Export Plug-In . SVG Version: 6.00 Build 0)  -->
<!DOCTYPE svg PUBLIC "-//W3C//DTD SVG 1.1//EN" "http://www.w3.org/Graphics/SVG/1.1/DTD/svg11.dtd" [
	<!ENTITY ns_extend "http://ns.adobe.com/Extensibility/1.0/">
	<!ENTITY ns_ai "http://ns.adobe.com/AdobeIllustrator/10.0/">
	<!ENTITY ns_graphs "http://ns.adobe.com/Graphs/1.0/">
	<!ENTITY ns_vars "http://ns.adobe.com/Variables/1.0/">
	<!ENTITY ns_imrep "http://ns.adobe.com/ImageReplacement/1.0/">
	<!ENTITY ns_sfw "http://ns.adobe.com/SaveForWeb/1.0/">
	<!ENTITY ns_custom "http://ns.adobe.com/GenericCustomNamespace/1.0/">
	<!ENTITY ns_adobe_xpath "http://ns.adobe.com/XPath/1.0/">
]>
<svg version="1.1" id="Capa_1" xmlns:x="&ns_extend;" xmlns:i="&ns_ai;" xmlns:graph="&ns_graphs;"
	 xmlns="http://www.w3.org/2000/svg" xmlns:xlink="http://www.w3.org/1999/xlink" x="0px" y="0px" viewBox="0 0 306.7 294.1"
	 style="enable-background:new 0 0 306.7 294.1;" xml:space="preserve">
<style type="text/css">
	.st0{fill:#E30613;}
</style>
<metadata>
	<sfw  xmlns="&ns_sfw;">
		<slices></slices>
		<sliceSourceBounds  bottomLeftOrigin="true" height="271.7" width="217.1" x="187.8" y="-555"></sliceSourceBounds>
		<optimizationSettings>
			<targetSettings  fileFormat="PNG24Format" targetSettingsID="0">
				<PNG24Format  filtered="false" interlaced="false" matteColor="#FFFFFF" noMatteColor="false" transparency="true">
					</PNG24Format>
			</targetSettings>
		</optimizationSettings>
	</sfw>
</metadata>
<path class="st0" d="M61,101.9c60.7,0,121,0,181.8,0c-0.7,10.3-1.3,20.3-2,30.3c-2,27.7-4,55.4-6.1,83.1
	c-1.4,18.4-2.7,36.7-4.2,55.1c-0.5,6.5-4.9,10.7-11.6,10.7c-44.8,0.1-89.6,0.1-134.5,0c-7.1,0-11.6-4.5-12.1-11.5
	c-2.9-42.7-5.8-85.5-8.7-128.2C62.9,128.3,62,115.3,61,101.9z M116.8,187.1c0,17.5,0,35,0,52.6c0,5.6,3,8.8,7.7,8.9
	c4.8,0.1,7.6-2.9,7.9-8.6c0.1-1.2,0.1-2.5,0.1-3.7c0-32.7,0-65.5,0-98.2c0-1.9,0-3.9-0.3-5.8c-0.8-4.5-4.6-7.1-9-6.1
	c-4.8,1-6.4,4.4-6.4,9C116.8,152.4,116.8,169.7,116.8,187.1z M187.2,187.2c0-17.5,0.1-35.1,0-52.6c0-5.5-3.1-8.8-7.8-8.8
	c-4.6,0-7.4,2.9-7.9,8.2c-0.1,1.4-0.1,2.8-0.1,4.2c0,32.6,0,65.1,0,97.7c0,2.3,0,4.6,0.6,6.8c1,4,3.8,5.8,7.9,5.6
	c4.6-0.2,7.3-3.6,7.3-9.3C187.3,221.9,187.2,204.6,187.2,187.2z"/>
<path class="st0" d="M43.7,85.3c0-6.8-0.4-13.2,0.1-19.5C44.4,57.1,52,51,61.5,50.9c19.8-0.1,39.7,0,59.5,0c39.5,0,79,0,118.5,0
	c15,0,21.1,6.2,21.2,21.3c0,4.2,0,8.4,0,13C188.2,85.3,116.2,85.3,43.7,85.3z"/>
<path class="st0" d="M151.8,35.4c-13.4,0-26.9-0.1-40.3,0.1c-3.4,0-4.8-1-4.7-4.5c0.2-4.6-0.1-9.2,0.2-13.8c0.3-5.2,3-7.7,8.2-7.7
	c24.6-0.1,49.2-0.1,73.7,0c5.2,0,7.7,2.5,8.2,7.7c0,0.2,0,0.4,0,0.5c1.5,17.7,1.5,17.7-16.2,17.7C171.2,35.4,161.5,35.4,151.8,35.4z
	"/>
</svg>
