<?xml version="1.0" encoding="utf-8"?>
<!-- Generator: Adobe Illustrator 25.2.1, SVG Export Plug-In . SVG Version: 6.00 Build 0)  -->
<!DOCTYPE svg PUBLIC "-//W3C//DTD SVG 1.1//EN" "http://www.w3.org/Graphics/SVG/1.1/DTD/svg11.dtd" [
	<!ENTITY ns_extend "http://ns.adobe.com/Extensibility/1.0/">
	<!ENTITY ns_ai "http://ns.adobe.com/AdobeIllustrator/10.0/">
	<!ENTITY ns_graphs "http://ns.adobe.com/Graphs/1.0/">
	<!ENTITY ns_vars "http://ns.adobe.com/Variables/1.0/">
	<!ENTITY ns_imrep "http://ns.adobe.com/ImageReplacement/1.0/">
	<!ENTITY ns_sfw "http://ns.adobe.com/SaveForWeb/1.0/">
	<!ENTITY ns_custom "http://ns.adobe.com/GenericCustomNamespace/1.0/">
	<!ENTITY ns_adobe_xpath "http://ns.adobe.com/XPath/1.0/">
]>
<svg version="1.1" id="Capa_1" xmlns:x="&ns_extend;" xmlns:i="&ns_ai;" xmlns:graph="&ns_graphs;"
	 xmlns="http://www.w3.org/2000/svg" xmlns:xlink="http://www.w3.org/1999/xlink" x="0px" y="0px" viewBox="0 0 259 341"
	 style="enable-background:new 0 0 259 341;" xml:space="preserve">
<style type="text/css">
	.st0{fill:#71692A;}
</style>
<metadata>
	<sfw  xmlns="&ns_sfw;">
		<slices></slices>
		<sliceSourceBounds  bottomLeftOrigin="true" height="651" width="693.8" x="-278" y="-763.8"></sliceSourceBounds>
		<optimizationSettings>
			<targetSettings  fileFormat="PNG24Format" targetSettingsID="0">
				<PNG24Format  filtered="false" interlaced="false" matteColor="#FFFFFF" noMatteColor="false" transparency="true">
					</PNG24Format>
			</targetSettings>
		</optimizationSettings>
	</sfw>
</metadata>
<path class="st0" d="M89.6,194.4c-3.4-3-6.6-5.5-9.5-8.3c-15.5-15.1-24.6-33.6-27.4-55c-1.2-9.1-0.7-18.4-0.8-27.6
	c0-2.1-0.5-3.2-2.5-4c-7.2-3-14.2-6.3-21.4-9.3c-6-2.5-9.5-6.9-9.6-13.3c0-6.4,3.4-10.8,9.4-13.4C58,50.4,88,37.3,118.1,24.2
	c7.3-3.2,14.7-3.2,22-0.1c30.2,13.1,60.3,26.2,90.5,39.4c9.1,4,11.7,12.6,6.8,21.1c-0.8,1.4-1.1,3.1-1.2,4.7
	c-0.1,12.4,0,24.7-0.1,37.1c0,5.9-3.4,9.7-8.6,9.7c-5.1,0-8.5-3.9-8.5-9.8c0-9,0-18.1,0-27.1c0-1.1,0-2.2,0-4.3
	c-4.5,2-8.4,3.6-12.2,5.6c-0.6,0.3-0.6,2.1-0.5,3.2c2.6,28-4.1,53.4-21.9,75.4c-3.8,4.7-8.7,8.6-13.1,12.8c-0.7,0.7-1.5,1.3-2.8,2.3
	c1.4,0.5,2.3,0.8,3.2,1.1c17.2,4.9,33.3,12,47.1,23.3c14.1,11.5,20.9,26.8,21.6,44.9c0.3,9.4,0.1,18.9,0.1,28.4
	c-0.1,14.6-11.8,26.5-26.3,26.5c-56.8,0.1-113.5,0.1-170.3,0c-14.5,0-26.2-11.9-26.3-26.5c-0.1-8.4,0-16.8,0-25.3
	c0-23.3,9.9-41.1,29.4-53.7c11.9-7.7,24.8-13.5,38.5-17.2C86.8,195.4,87.9,195,89.6,194.4z M41,76.8c1.4,0.7,2,1,2.7,1.3
	c26.9,11.7,53.8,23.4,80.7,35.2c3.6,1.6,7,1.2,10.5-0.3c26.6-11.6,53.2-23.2,79.8-34.8c0.7-0.3,1.4-0.7,2.4-1.3
	c-1.2-0.7-1.9-1.2-2.8-1.5c-26.6-11.6-53.2-23.2-79.8-34.8c-3.7-1.6-7-1.5-10.7,0.1c-22.8,10-45.6,19.9-68.5,29.8
	C50.8,72.4,46.2,74.4,41,76.8z M69,108.1c-0.2,2-0.6,3.3-0.5,4.6c0.3,5.7,0.4,11.4,1.3,17c2.8,17,9.8,32.1,22.3,44.2
	c21.1,20.5,50.6,21.2,72.4,1.5c17.1-15.4,24.2-35.5,25.3-58c0.1-2.9,0-5.9,0-9.4c-1.9,0.7-3.1,1.1-4.2,1.6
	c-14.8,6.4-29.7,12.8-44.5,19.4c-8.2,3.6-16.2,3.5-24.3-0.1c-8.9-4-17.8-7.8-26.8-11.7C83.3,114.2,76.4,111.3,69,108.1z
	 M176.9,301.3c12.1,0,24.1,0,36.2,0c6.3,0,10.4-4.1,10.4-10.4c0.1-8.8,0.3-17.7-0.1-26.5c-0.6-14.3-6.3-26-18.1-34.5
	c-10.5-7.5-22-12.9-34.2-16.8c-1.9-0.6-3.1-0.4-4.3,1.5c-9.1,14.6-18.5,29.1-27.6,43.7c-0.8,1.3-1.3,3.1-1.3,4.6
	c-0.1,11.5,0,23.1-0.1,34.6c0,3.1,1.1,3.8,4,3.8C153.4,301.3,165.2,301.3,176.9,301.3z M81.1,301.3c12.1,0,24.1-0.1,36.2,0
	c2.5,0,3.5-0.7,3.4-3.3c-0.1-11.7,0-23.5-0.1-35.2c0-1.4-0.5-2.9-1.2-4c-9.3-14.8-18.7-29.4-28-44.2c-1.1-1.8-2.2-2-4-1.5
	c-10.1,3.2-19.7,7.6-28.8,13.1C42,236,34.3,250.3,34.8,269.4c0.2,6.9,0,13.7,0,20.6c0,7.4,3.9,11.4,11.3,11.4
	C57.8,301.4,69.4,301.3,81.1,301.3z M150.2,208.5c-14.4-2-28-2.3-42.1,0.2c7.1,11.2,13.9,21.8,21,33.1
	C136.3,230.5,143,219.9,150.2,208.5z"/>
<image style="overflow:visible;" width="238" height="401" xlink:href="E55B3C1B.jpg"  transform="matrix(1.6234 0 0 1.6234 -453 -101.1513)">
</image>
</svg>
