<?xml version="1.0" encoding="utf-8"?>
<!-- Generator: Adobe Illustrator 25.2.1, SVG Export Plug-In . SVG Version: 6.00 Build 0)  -->
<!DOCTYPE svg PUBLIC "-//W3C//DTD SVG 1.1//EN" "http://www.w3.org/Graphics/SVG/1.1/DTD/svg11.dtd" [
	<!ENTITY ns_extend "http://ns.adobe.com/Extensibility/1.0/">
	<!ENTITY ns_ai "http://ns.adobe.com/AdobeIllustrator/10.0/">
	<!ENTITY ns_graphs "http://ns.adobe.com/Graphs/1.0/">
	<!ENTITY ns_vars "http://ns.adobe.com/Variables/1.0/">
	<!ENTITY ns_imrep "http://ns.adobe.com/ImageReplacement/1.0/">
	<!ENTITY ns_sfw "http://ns.adobe.com/SaveForWeb/1.0/">
	<!ENTITY ns_custom "http://ns.adobe.com/GenericCustomNamespace/1.0/">
	<!ENTITY ns_adobe_xpath "http://ns.adobe.com/XPath/1.0/">
]>
<svg version="1.1" id="Capa_1" xmlns:x="&ns_extend;" xmlns:i="&ns_ai;" xmlns:graph="&ns_graphs;"
	 xmlns="http://www.w3.org/2000/svg" xmlns:xlink="http://www.w3.org/1999/xlink" x="0px" y="0px" viewBox="0 0 542.3 542.3"
	 style="enable-background:new 0 0 542.3 542.3;" xml:space="preserve">
<style type="text/css">
	.st0{fill:#1E3C79;}
	.st1{fill:url(#SVGID_1_);}
	.st2{fill:url(#SVGID_2_);}
	.st3{fill:url(#SVGID_3_);}
	.st4{fill:url(#SVGID_4_);}
	.st5{fill:url(#SVGID_5_);}
	.st6{fill:url(#SVGID_6_);}
	.st7{fill:url(#SVGID_7_);}
	.st8{fill:url(#SVGID_8_);}
	.st9{fill:url(#SVGID_9_);}
	.st10{fill:url(#SVGID_10_);}
	.st11{fill:url(#SVGID_11_);}
	.st12{fill:url(#SVGID_12_);}
	.st13{fill:url(#SVGID_13_);}
	.st14{fill:url(#SVGID_14_);}
	.st15{fill:url(#SVGID_15_);}
	.st16{fill:url(#SVGID_16_);}
	.st17{fill:url(#SVGID_17_);}
	.st18{fill:url(#SVGID_18_);}
	.st19{fill:url(#SVGID_19_);}
	.st20{fill:url(#SVGID_20_);}
	.st21{fill:url(#SVGID_21_);}
	.st22{fill:url(#SVGID_22_);}
	.st23{fill:url(#SVGID_23_);}
	.st24{fill:url(#SVGID_24_);}
	.st25{fill:url(#SVGID_25_);}
	.st26{fill:url(#SVGID_26_);}
	.st27{fill:url(#SVGID_27_);}
	.st28{fill:url(#SVGID_28_);}
	.st29{fill:url(#SVGID_29_);}
	.st30{fill:url(#SVGID_30_);}
	.st31{fill:url(#SVGID_31_);}
	.st32{fill:url(#SVGID_32_);}
	.st33{fill:url(#SVGID_33_);}
	.st34{fill:url(#SVGID_34_);}
	.st35{fill:url(#SVGID_35_);}
	.st36{fill:url(#SVGID_36_);}
	.st37{fill:#7C90A3;}
	.st38{fill:#19408D;}
</style>
<metadata>
	<sfw  xmlns="&ns_sfw;">
		<slices></slices>
		<sliceSourceBounds  bottomLeftOrigin="true" height="502" width="522.5" x="7.7" y="13.4"></sliceSourceBounds>
	</sfw>
</metadata>
<g>
	<g>
		<g>
			<path class="st0" d="M22.8,528.3v-1c2.4-0.3,2.7-0.7,2.2-2c-0.5-1.4-1.2-3.3-2-5.6h-7.9c-0.6,1.6-1.1,3.1-1.6,4.6
				c-0.8,2.4-0.3,2.7,2.7,3v1H7.7v-1c2.3-0.3,2.9-0.5,4.2-3.8l7.6-19.2l1.2-0.2c2.3,6.2,4.8,13.2,7.1,19.5c1.2,3.2,1.5,3.5,4.1,3.8
				v1L22.8,528.3L22.8,528.3z M19.1,508.8c-1.2,3.1-2.4,6.5-3.5,9.4h6.8L19.1,508.8z"/>
			<path class="st0" d="M60.5,510.2c-0.3-1.2-0.8-2.4-1.2-3c-0.6-1-1-1.2-3-1.2h-3.7v17.8c0,2.9,0.3,3.3,3.8,3.5v1H45.9v-1
				c3.4-0.2,3.7-0.6,3.7-3.5V506h-3.3c-2,0-2.6,0.2-3.2,1.3c-0.4,0.7-0.7,1.6-1.2,3h-1.1c0.2-2.2,0.4-4.5,0.5-6.6h0.8
				c0.5,0.9,1,0.8,2,0.8h14.5c1,0,1.3-0.1,1.9-0.8h0.9c0,1.7,0.1,4.3,0.3,6.5L60.5,510.2z"/>
			<path class="st0" d="M86.1,528.6c-0.5,0-0.9,0-1.4-0.1c-2.7-0.2-4.1-0.9-5.7-3.1c-1.4-1.9-2.7-4.2-3.8-6
				c-0.7-1.2-1.2-1.4-3.1-1.4h-1.3v5.7c0,3.1,0.4,3.3,3.3,3.6v1h-9.8v-1c3-0.3,3.3-0.5,3.3-3.6v-14.6c0-3.1-0.4-3.2-3.3-3.5v-1h9.3
				c2.7,0,4.5,0.3,5.8,1.2c1.5,1,2.5,2.6,2.5,4.8c0,3.1-2,5.1-4.7,6.3c0.7,1.1,2.2,3.6,3.3,5.2c1.4,1.9,2,2.9,2.9,3.8
				c1,1.1,1.8,1.5,2.7,1.7L86.1,528.6z M72.6,516.7c1.9,0,3.1-0.3,4-1.1c1.4-1.1,2-2.5,2-4.5c0-3.9-2.6-5.3-5.4-5.3
				c-1.1,0-1.7,0.1-1.9,0.4c-0.3,0.3-0.4,0.6-0.4,1.6v9h1.7V516.7z"/>
			<path class="st0" d="M99.1,528.3v-1c2.4-0.3,2.7-0.7,2.2-2c-0.5-1.4-1.2-3.3-2-5.6h-7.9c-0.6,1.6-1.1,3.1-1.6,4.6
				c-0.8,2.4-0.3,2.7,2.7,3v1H84v-1c2.3-0.3,2.9-0.5,4.2-3.8l7.6-19.2l1.2-0.2c2.3,6.2,4.8,13.2,7.1,19.5c1.2,3.2,1.5,3.5,4.1,3.8v1
				L99.1,528.3L99.1,528.3z M95.5,508.8c-1.2,3.1-2.4,6.5-3.5,9.4h6.8L95.5,508.8z"/>
			<path class="st0" d="M119.2,504.5c5.2,0,8.4,1,10.7,3.2c1.8,1.8,3.1,4.3,3.1,7.8c0,4.3-1.8,7.7-4.6,9.9
				c-2.8,2.1-6.3,2.9-10.8,2.9H109v-1c3.1-0.3,3.3-0.5,3.3-3.5v-14.6c0-3.1-0.4-3.3-3.3-3.6v-1h10.2V504.5z M115.5,523.4
				c0,2.7,1.2,3.5,3.9,3.5c6.6,0,9.9-4.5,9.9-10.9c0-4-1.4-7-4.2-8.8c-1.7-1.1-3.8-1.5-6.2-1.5c-1.6,0-2.5,0.2-2.9,0.5
				c-0.3,0.2-0.5,0.6-0.5,2C115.5,508.2,115.5,523.4,115.5,523.4z"/>
			<path class="st0" d="M136.4,528.3v-1c3-0.3,3.3-0.5,3.3-3.6v-14.5c0-3.1-0.3-3.3-3.3-3.6v-1h9.8v1c-3,0.3-3.3,0.5-3.3,3.6v14.5
				c0,3.1,0.3,3.3,3.3,3.6v1H136.4z"/>
			<path class="st0" d="M168.7,510.2c-0.3-1.2-0.8-2.4-1.2-3c-0.6-1-1-1.2-3-1.2h-3.7v17.8c0,2.9,0.3,3.3,3.8,3.5v1H154v-1
				c3.4-0.2,3.7-0.6,3.7-3.5V506h-3.3c-2,0-2.6,0.2-3.2,1.3c-0.4,0.7-0.7,1.6-1.2,3h-1.1c0.2-2.2,0.4-4.5,0.5-6.6h0.8
				c0.5,0.9,1,0.8,2,0.8h14.5c1,0,1.3-0.1,1.9-0.8h0.9c0,1.7,0.1,4.3,0.3,6.5L168.7,510.2z"/>
			<path class="st0" d="M172.5,528.3v-1c3-0.3,3.3-0.5,3.3-3.6v-14.5c0-3.1-0.3-3.3-3.3-3.6v-1h9.8v1c-3,0.3-3.3,0.5-3.3,3.6v14.5
				c0,3.1,0.3,3.3,3.3,3.6v1H172.5z"/>
			<path class="st0" d="M198,504c6.2,0,11.8,4.8,11.8,12.1c0,7.9-5.3,12.8-12.1,12.8c-7,0-12.1-5.3-12.1-12.2
				C185.6,510.1,190.3,504,198,504z M197.2,505.3c-4.1,0-7.8,3.4-7.8,10.3c0,6.8,3.7,11.8,8.9,11.8c4.4,0,7.7-3.3,7.7-10.3
				C206.1,509.4,202,505.3,197.2,505.3z"/>
			<path class="st0" d="M238.4,505.5c-2.3,0.3-3.1,0.6-3.2,2.3c0,1.2-0.1,2.7-0.1,6.1v14.7h-1.4l-15.6-19.1v9.1c0,3.3,0.1,4.9,0.2,6
				c0.1,1.9,1,2.4,3.6,2.6v1H213v-1c2.3-0.2,3.1-0.7,3.3-2.5c0.1-1.2,0.2-2.8,0.2-6.1v-9.3c0-1-0.1-1.6-0.7-2.4
				c-0.7-0.9-1.5-1.1-3.3-1.3v-1h5.5l15.5,18.4v-9c0-3.4-0.1-5-0.2-6.1c-0.1-1.6-1-2.2-3.9-2.3v-1h9L238.4,505.5L238.4,505.5z"/>
			<path class="st0" d="M261.9,504c6.2,0,11.8,4.8,11.8,12.1c0,7.9-5.3,12.8-12.1,12.8c-7,0-12.1-5.3-12.1-12.2
				C249.6,510.1,254.2,504,261.9,504z M261.2,505.3c-4.1,0-7.8,3.4-7.8,10.3c0,6.8,3.7,11.8,8.9,11.8c4.4,0,7.7-3.3,7.7-10.3
				C270,509.4,266,505.3,261.2,505.3z"/>
			<path class="st0" d="M293.1,510.2c-0.3-1-0.6-1.9-1.1-2.7c-0.7-1.2-1.2-1.5-3.3-1.5h-3.9c-1.1,0-1.2,0.1-1.2,1.2v8.4h4.5
				c2.6,0,2.8-0.4,3.4-3h1.1v7.6h-1.1c-0.5-2.6-0.7-3.1-3.3-3.1h-4.5v6.5c0,3.2,0.4,3.3,3.7,3.6v1h-10.2v-1c3-0.2,3.3-0.5,3.3-3.6
				v-14.5c0-3.2-0.4-3.3-3.3-3.6v-1h11.6c3.3,0,4.5,0,5.2-0.1c0,1.3,0.2,3.9,0.4,5.6L293.1,510.2z"/>
			<path class="st0" d="M324.7,522.5c-0.2,1-1.2,4.7-1.6,5.8h-17.8v-1c3.4-0.3,3.7-0.6,3.7-3.6v-14.4c0-3.3-0.4-3.4-3.1-3.7v-1h11.2
				c3.4,0,4.9,0,5.3-0.1c0,0.9,0.2,3.7,0.3,5.6l-1.1,0.2c-0.3-1.2-0.7-2-1.1-2.8c-0.6-1.2-1.4-1.5-3.6-1.5h-3.5
				c-1.1,0-1.2,0.1-1.2,1.2v8.1h4.1c2.7,0,2.9-0.5,3.4-3h1.1v7.5h-1.1c-0.5-2.6-0.8-3-3.4-3h-4v7.3c0,2.6,0.8,2.8,2.6,2.8h3.4
				c2.2,0,2.6-0.3,3.4-1.3c0.7-0.8,1.5-2.3,2-3.4L324.7,522.5z"/>
			<path class="st0" d="M338.5,528.3v-1c2.3-0.3,2.5-0.6,1.8-1.8c-0.8-1.4-2.4-4.2-4.7-7.7c-1.7,2.7-3.3,5.2-4.5,7.3
				c-0.8,1.5-0.5,1.9,1.9,2.2v1h-8.5v-1c2.2-0.2,3.2-0.8,4.3-2.1c1.4-1.8,2.8-3.9,6-8.8c-1.9-3.1-3.5-5.7-4.8-7.6
				c-1.6-2.4-2-2.9-4.7-3.2v-1h9.1v1c-2.3,0.2-2.3,0.6-1.8,1.6c1.2,2,2.5,4.2,4.1,6.7c1.4-2.2,2.7-4.3,3.7-6c0.9-1.6,0.6-2-1.8-2.3
				v-1h8.3v1c-2.7,0.4-3.4,0.7-5,2.9c-1.2,1.7-1.9,2.8-4.5,6.6c2,3.1,3.8,6.1,5.6,8.8c1.8,2.8,2.5,3.2,5.1,3.4v1L338.5,528.3
				L338.5,528.3z"/>
			<path class="st0" d="M370.5,522.4c-0.5,1.8-1.5,4.4-2,5.5c-1.1,0.2-3.9,0.9-6.7,0.9c-8.7,0-13.2-5.8-13.2-12.2
				c0-7.5,5.7-12.6,13.9-12.6c3.1,0,5.7,0.7,6.9,0.8c0.1,1.6,0.4,3.8,0.7,5.7l-1.1,0.3c-0.7-2.4-1.6-3.9-3.5-4.7
				c-1-0.4-2.4-0.7-3.8-0.7c-6,0-9.2,4.5-9.2,10.5c0,7.1,3.7,11.6,9.6,11.6c3.7,0,5.6-1.7,7.4-5.4L370.5,522.4z"/>
			<path class="st0" d="M392.6,522.5c-0.2,1-1.2,4.7-1.6,5.8h-17.8v-1c3.4-0.3,3.7-0.6,3.7-3.6v-14.4c0-3.3-0.4-3.4-3.1-3.7v-1H385
				c3.4,0,4.9,0,5.3-0.1c0,0.9,0.2,3.7,0.3,5.6l-1.1,0.2c-0.3-1.2-0.7-2-1.1-2.8c-0.6-1.2-1.4-1.5-3.6-1.5h-3.5
				c-1.1,0-1.2,0.1-1.2,1.2v8.1h4.1c2.7,0,2.9-0.5,3.4-3h1.1v7.5h-1.1c-0.5-2.6-0.8-3-3.4-3h-4v7.3c0,2.6,0.8,2.8,2.6,2.8h3.4
				c2.2,0,2.6-0.3,3.4-1.3c0.7-0.8,1.5-2.3,2-3.4L392.6,522.5z"/>
			<path class="st0" d="M413.5,522.2c-0.2,1.1-1.3,4.9-1.7,6.1h-17v-1c3.3-0.3,3.6-0.5,3.6-3.6v-14.5c0-3.1-0.4-3.3-3.3-3.6v-1h9.8
				v1c-2.9,0.3-3.3,0.4-3.3,3.6V524c0,2.2,0.3,2.7,2.4,2.8c0,0,2.7,0,2.9,0c1.9,0,2.4-0.2,3.3-1.1c0.9-1,1.7-2.4,2.2-3.8
				L413.5,522.2z"/>
			<path class="st0" d="M434.3,522.2c-0.2,1.1-1.3,4.9-1.7,6.1h-17v-1c3.3-0.3,3.6-0.5,3.6-3.6v-14.5c0-3.1-0.4-3.3-3.3-3.6v-1h9.8
				v1c-2.9,0.3-3.3,0.4-3.3,3.6V524c0,2.2,0.3,2.7,2.4,2.8c0,0,2.7,0,2.9,0c1.9,0,2.4-0.2,3.3-1.1c0.9-1,1.7-2.4,2.2-3.8
				L434.3,522.2z"/>
			<path class="st0" d="M455.7,522.5c-0.2,1-1.2,4.7-1.6,5.8h-17.8v-1c3.4-0.3,3.7-0.6,3.7-3.6v-14.4c0-3.3-0.4-3.4-3.1-3.7v-1H448
				c3.4,0,4.9,0,5.3-0.1c0,0.9,0.2,3.7,0.3,5.6l-1.1,0.2c-0.3-1.2-0.7-2-1.1-2.8c-0.6-1.2-1.4-1.5-3.6-1.5h-3.5
				c-1.1,0-1.2,0.1-1.2,1.2v8.1h4.1c2.7,0,2.9-0.5,3.4-3h1.1v7.5h-1.1c-0.5-2.6-0.8-3-3.4-3h-4v7.3c0,2.6,0.8,2.8,2.6,2.8h3.4
				c2.2,0,2.6-0.3,3.4-1.3c0.7-0.8,1.5-2.3,2-3.4L455.7,522.5z"/>
			<path class="st0" d="M483.5,505.5c-2.3,0.3-3.1,0.6-3.2,2.3c0,1.2-0.1,2.7-0.1,6.1v14.7h-1.4l-15.6-19.1v9.1c0,3.3,0.1,4.9,0.2,6
				c0.1,1.9,1,2.4,3.6,2.6v1h-8.9v-1c2.3-0.2,3.1-0.7,3.3-2.5c0.1-1.2,0.2-2.8,0.2-6.1v-9.3c0-1-0.1-1.6-0.7-2.4
				c-0.7-0.9-1.5-1.1-3.3-1.3v-1h5.5l15.5,18.4v-9c0-3.4-0.1-5-0.2-6.1c-0.1-1.6-1-2.2-3.9-2.3v-1h9V505.5z"/>
			<path class="st0" d="M508,522.4c-0.5,1.8-1.5,4.4-2,5.5c-1.1,0.2-3.9,0.9-6.7,0.9c-8.7,0-13.2-5.8-13.2-12.2
				c0-7.5,5.7-12.6,13.9-12.6c3.1,0,5.7,0.7,6.9,0.8c0.1,1.6,0.4,3.8,0.7,5.7l-1.1,0.3c-0.7-2.4-1.6-3.9-3.5-4.7
				c-1-0.4-2.4-0.7-3.8-0.7c-6,0-9.2,4.5-9.2,10.5c0,7.1,3.7,11.6,9.6,11.6c3.7,0,5.6-1.7,7.4-5.4L508,522.4z"/>
			<path class="st0" d="M530.2,522.5c-0.2,1-1.2,4.7-1.6,5.8h-17.8v-1c3.4-0.3,3.7-0.6,3.7-3.6v-14.4c0-3.3-0.4-3.4-3.1-3.7v-1h11.2
				c3.4,0,4.9,0,5.3-0.1c0,0.9,0.2,3.7,0.3,5.6l-1.1,0.2c-0.3-1.2-0.7-2-1.1-2.8c-0.6-1.2-1.4-1.5-3.6-1.5h-3.5
				c-1.1,0-1.2,0.1-1.2,1.2v8.1h4.1c2.7,0,2.9-0.5,3.4-3h1.1v7.5h-1.1c-0.5-2.6-0.8-3-3.4-3h-4v7.3c0,2.6,0.8,2.8,2.6,2.8h3.4
				c2.2,0,2.6-0.3,3.4-1.3c0.7-0.8,1.5-2.3,2-3.4L530.2,522.5z"/>
		</g>
	</g>
	<g>
		<g>
			<path class="st0" d="M82.1,408.6c-5.4,0.4-7.3,2.1-7.5,7c-0.1,2.4-0.3,6.9-0.3,16.7v11.5c0,10.8-1,19.1-6,25.6
				c-4,5.2-9.8,6.8-15.7,6.8c-5,0-10.2-1.3-14-4.9c-5.1-4.9-7.6-12.2-7.6-24.7v-27.1c0-9.6-0.7-10.2-7.5-10.9v-3h22.4v3
				c-6.8,0.5-7.5,1.4-7.5,10.9v26.6c0,15.5,5.9,24,16.1,24c12.1,0,16-9.4,16-27v-10.8c0-9.8-0.3-13.8-0.4-16.7
				c-0.3-4.8-2.2-6.6-8.5-7v-3h20.5C82.1,405.6,82.1,408.6,82.1,408.6z"/>
			<path class="st0" d="M145.8,408.6c-5.5,0.7-7.3,1.8-7.5,6.7c-0.1,3.4-0.3,7.9-0.3,17.8v42.6h-3.2L98.3,420v26.6
				c0,9.6,0.3,14.3,0.4,17.4c0.2,5.4,2.3,7,8.5,7.7v3H86.4v-3c5.3-0.5,7.3-2.1,7.7-7.3c0.3-3.4,0.4-8.2,0.4-17.9v-27.1
				c0-3-0.2-4.7-1.7-7c-1.6-2.7-3.4-3.3-7.6-3.8v-3H98l36.2,53.5v-26c0-9.9-0.2-14.5-0.4-17.6c-0.3-4.8-2.2-6.3-9-6.8v-3h21.1v2.9
				H145.8z"/>
			<path class="st0" d="M151.9,474.7v-3c7-1,7.7-1.4,7.7-10.4v-42.2c0-9.1-0.7-9.6-7.7-10.5v-3h22.9v3c-7.1,1-7.8,1.4-7.8,10.5v42.2
				c0,9.1,0.7,9.5,7.8,10.4v3H151.9z"/>
			<path class="st0" d="M234.5,408.6c-5.7,1-7.2,1.9-10.2,11.5c-2.3,7-14.1,42.6-18.3,55.8h-2.8c-5-17.1-12.4-42-17.2-57.7
				c-2.4-7.9-3.8-8.9-9-9.6v-3h21.7v3c-6.3,0.9-6.7,2.1-5.5,6.1c2.1,7.8,8.4,28.9,13.7,46.6c4.5-13.7,10.2-31,14.2-44.4
				c1.9-6.2,0.9-7.1-6.1-8.2v-3h19.6L234.5,408.6L234.5,408.6z"/>
			<path class="st0" d="M279.6,457.8c-0.5,2.8-2.8,13.7-3.7,16.9h-41.5v-3c7.9-0.7,8.5-1.7,8.5-10.4v-42c0-9.5-0.9-10-7.3-10.7v-3
				h26.1c8,0,11.4-0.1,12.4-0.2c0.1,2.7,0.4,10.6,0.8,16.3l-2.6,0.5c-0.8-3.6-1.6-5.8-2.6-8.1c-1.4-3.5-3.3-4.3-8.5-4.3h-8.1
				c-2.6,0-2.8,0.3-2.8,3.4v23.5h9.5c6.4,0,6.8-1.6,7.9-8.8h2.6v21.9h-2.6c-1.1-7.7-1.8-8.7-7.9-8.7h-9.4v21.2
				c0,7.4,1.9,8.1,6.1,8.2h7.9c5.2,0,6.1-1,7.9-3.7c1.6-2.2,3.4-6.6,4.6-9.8L279.6,457.8z"/>
			<path class="st0" d="M336.2,475.5c-1.1,0-2-0.1-3.2-0.2c-6.2-0.5-9.6-2.6-13.3-9.1c-3.2-5.4-6.2-12.1-9-17.5
				c-1.7-3.4-2.8-4-7.2-4h-3v16.7c0,9,0.9,9.6,7.8,10.4v3h-22.8v-3c7.1-1,7.7-1.4,7.7-10.4V419c0-9-0.9-9.4-7.7-10.3v-3h21.8
				c6.2,0,10.4,1,13.7,3.6c3.5,2.8,5.8,7.5,5.8,14c0,9.1-4.7,14.9-11,18.3c1.5,3.3,5.2,10.4,7.8,15.2c3.2,5.6,4.8,8.3,6.7,10.9
				c2.3,3.1,4.3,4.3,6.2,4.9L336.2,475.5z M304.7,441c4.4,0,7.3-0.9,9.4-3.1c3.3-3.1,4.7-7.3,4.7-13.1c0-11.4-6.1-15.5-12.6-15.5
				c-2.5,0-3.9,0.4-4.5,1.1c-0.8,0.7-1,1.8-1,4.6v26H304.7z"/>
			<path class="st0" d="M367.6,421.7c-1.5-7-3.8-13.9-11.9-13.9c-6.7,0-9,6.1-9,11.6c0,7.3,3.8,11.1,10.8,15.6
				c10.2,6.6,14.7,11.5,14.7,21.6c0,11.2-7.8,19.7-18.8,19.7c-5.1,0-9.6-1.8-13.1-3.5c-0.7-3-1.7-10.2-2.3-15.9l2.6-0.8
				c1.7,7.1,5.5,16.4,14.3,16.4c6.1,0,9.9-5.3,9.9-12.2c0-8.2-3.5-11.5-11-16.6c-9-6.1-14-11.2-14-21c0-9.5,6.3-18.4,17.6-18.4
				c4.8,0,9.5,1.6,11.3,2c0.3,3.8,0.7,8.1,1.4,15L367.6,421.7z"/>
			<path class="st0" d="M379.9,474.7v-3c7-1,7.7-1.4,7.7-10.4v-42.2c0-9.1-0.7-9.6-7.7-10.5v-3h22.9v3c-7.1,1-7.8,1.4-7.8,10.5v42.2
				c0,9.1,0.7,9.5,7.8,10.4v3H379.9z"/>
			<path class="st0" d="M455.4,422.3c-0.8-3.4-1.8-6.9-2.7-8.8c-1.4-2.9-2.2-3.6-6.9-3.6h-8.5v51.8c0,8.3,0.7,9.5,8.8,10.1v3h-24.8
				v-3c7.9-0.6,8.6-1.7,8.6-10.1v-51.8H422c-4.7,0-6.1,0.6-7.5,3.8c-1,2.1-1.7,4.7-2.8,8.6h-2.6c0.5-6.5,1-13.2,1.3-19.1h2
				c1.3,2.6,2.2,2.4,4.6,2.4h33.8c2.4,0,3.1-0.4,4.4-2.4h2c0,5,0.3,12.6,0.8,18.8L455.4,422.3z"/>
			<path class="st0" d="M510.4,408.6c-6,0.9-7,2-10.4,8.8c-3.8,7.8-7,15.1-11.2,24.6c-1,2.4-1.3,3.7-1.3,6.3v13.1
				c0,8.8,0.8,9.5,8.7,10.4v3h-24.5v-3c7.8-1.3,8.4-1.5,8.4-10.4v-13.7c0-2.1-0.3-3.1-1.7-6.2c-3-6.9-5.9-13.6-10.5-23.6
				c-3.3-7.2-4.2-8.5-10-9.2v-3h21v3c-6.1,1.1-5.8,2.4-4.3,6.1c3.6,8.2,7.6,17.8,11.2,25.7c3.1-7.1,7.9-18.7,10.3-24.6
				c2-5.3,1.7-6.4-5-7.2v-3h19.3V408.6z"/>
		</g>
	</g>
</g>
<linearGradient id="SVGID_1_" gradientUnits="userSpaceOnUse" x1="117.418" y1="200.6983" x2="314.2128" y2="200.6983">
	<stop  offset="0" style="stop-color:#3765B0"/>
	<stop  offset="1" style="stop-color:#007CE7"/>
</linearGradient>
<path class="st1" d="M308.9,351c0,0-1.8-4.3-6.9-6.4s-18.9-8.7-54.2-16.6c-35.3-7.9-82-52.2-88.5-58.5c-6.5-6.3-25.8-31.9-35.6-63.8
	s-5.8-61.8-3.4-74.3c2.4-12.5,19.2-68.5,39.5-80.9l2.1,9.7c0,0-22.2,16.9-34.9,70s9.4,91.8,11.2,96.8c1.8,5,21.2,44.4,65.6,74.8
	c0,0,14.8,10.3,37.4,17.8s52.2,14.9,60.7,19.1c8.5,4.3,12.2,8.9,12.2,8.9L308.9,351z"/>
<g>
	<linearGradient id="SVGID_2_" gradientUnits="userSpaceOnUse" x1="250.8899" y1="354.4241" x2="170.7197" y2="89.4028">
		<stop  offset="0" style="stop-color:#007CE7"/>
		<stop  offset="1" style="stop-color:#3765B0"/>
	</linearGradient>
	<path class="st2" d="M166.8,65.9c-20.6,0.9-25,18-25,18s4.9,4.6,18.4,5.1c13.4,0.5,32.9-16.2,32.9-16.2S187.4,65.1,166.8,65.9z
		 M147.6,77.5c0,0,11.2-6.8,29.8-4.1C177.4,73.4,155.9,75.2,147.6,77.5z"/>
	<linearGradient id="SVGID_3_" gradientUnits="userSpaceOnUse" x1="270.4982" y1="348.4925" x2="190.328" y2="83.4712">
		<stop  offset="0" style="stop-color:#007CE7"/>
		<stop  offset="1" style="stop-color:#3765B0"/>
	</linearGradient>
	<path class="st3" d="M172.5,33.2c-18.8,9.7-15.1,28.8-15.1,28.8s6.7,2.4,19.5-2.8c12.8-5.3,23.3-30.3,23.3-30.3
		S191.3,23.4,172.5,33.2z M159.8,53c0,0,7.4-11.6,26-16.9C185.8,36.1,166.6,47.1,159.8,53z"/>
	<linearGradient id="SVGID_4_" gradientUnits="userSpaceOnUse" x1="232.1485" y1="360.0934" x2="151.9783" y2="95.0722">
		<stop  offset="0" style="stop-color:#007CE7"/>
		<stop  offset="1" style="stop-color:#3765B0"/>
	</linearGradient>
	<path class="st4" d="M141.3,26.9c0,0-15.3,21.9-13.1,35.5c2.2,13.7,7.8,18.2,7.8,18.2s17.7-6.6,16-27.8
		C150.3,31.7,141.3,26.9,141.3,26.9z M142.7,42.9c5.2,18.6-0.5,30.9-0.5,30.9C143.5,65.1,142.7,42.9,142.7,42.9z"/>
	<linearGradient id="SVGID_5_" gradientUnits="userSpaceOnUse" x1="228.8983" y1="361.0767" x2="148.7281" y2="96.0554">
		<stop  offset="0" style="stop-color:#007CE7"/>
		<stop  offset="1" style="stop-color:#3765B0"/>
	</linearGradient>
	<path class="st5" d="M148.3,96.2c-19.5,6.6-19,24.3-19,24.3s6,3,19.1-0.2c13.1-3.3,27-24.7,27-24.7S167.8,89.7,148.3,96.2z
		 M133.1,112.7c0,0,8.9-9.6,27.5-12.2C160.5,100.5,140.4,108.2,133.1,112.7z"/>
	<linearGradient id="SVGID_6_" gradientUnits="userSpaceOnUse" x1="202.9518" y1="368.9256" x2="122.7816" y2="103.9043">
		<stop  offset="0" style="stop-color:#007CE7"/>
		<stop  offset="1" style="stop-color:#3765B0"/>
	</linearGradient>
	<path class="st6" d="M112.9,65.9c0,0-8.6,25.3-2.6,37.8c6,12.5,12.5,15.3,12.5,15.3s15.2-11.3,7.6-31.1
		C122.9,67.9,112.9,65.9,112.9,65.9z M118.7,80.9c10.2,16.4,8.1,29.9,8.1,29.9C125.7,101.9,118.7,80.9,118.7,80.9z"/>
	<linearGradient id="SVGID_7_" gradientUnits="userSpaceOnUse" x1="208.034" y1="367.3882" x2="127.8638" y2="102.3669">
		<stop  offset="0" style="stop-color:#007CE7"/>
		<stop  offset="1" style="stop-color:#3765B0"/>
	</linearGradient>
	<path class="st7" d="M133.5,132.4c-17.6,10.8-13.1,28-13.1,28s6.6,1.6,18.5-4.5c12-6.1,20.8-30.1,20.8-30.1
		S151.1,121.6,133.5,132.4z M122.4,151.9c0,0,6.5-11.4,24-18.1C146.4,133.8,128.6,145.8,122.4,151.9z"/>
	<linearGradient id="SVGID_8_" gradientUnits="userSpaceOnUse" x1="178.2629" y1="376.3941" x2="98.0927" y2="111.3728">
		<stop  offset="0" style="stop-color:#007CE7"/>
		<stop  offset="1" style="stop-color:#3765B0"/>
	</linearGradient>
	<path class="st8" d="M92.2,110.7c0,0-2.7,26.5,5.9,37.4c8.6,10.8,15.6,12.1,15.6,12.1s12.3-14.4,0.5-32.1
		C102.4,110.5,92.2,110.7,92.2,110.7z M101.3,124.1c13.7,13.7,14.6,27.3,14.6,27.3C112.8,143,101.3,124.1,101.3,124.1z"/>
	<linearGradient id="SVGID_9_" gradientUnits="userSpaceOnUse" x1="198.0629" y1="370.4045" x2="117.8926" y2="105.3832">
		<stop  offset="0" style="stop-color:#007CE7"/>
		<stop  offset="1" style="stop-color:#3765B0"/>
	</linearGradient>
	<path class="st9" d="M132,175c-13.2,15.9-3.3,30.7-3.3,30.7s6.7-0.6,16.1-10.2c9.4-9.6,10-35.2,10-35.2S145.2,159.1,132,175z
		 M127.7,197c0,0,2.5-12.9,16.9-24.8C144.7,172.2,131.7,189.3,127.7,197z"/>
	<linearGradient id="SVGID_10_" gradientUnits="userSpaceOnUse" x1="164.9414" y1="380.4239" x2="84.7712" y2="115.4026">
		<stop  offset="0" style="stop-color:#007CE7"/>
		<stop  offset="1" style="stop-color:#3765B0"/>
	</linearGradient>
	<path class="st10" d="M85.9,167.8c0,0,6,26,17.7,33.5c11.7,7.5,18.7,6.4,18.7,6.4s7-17.6-9.9-30.5
		C95.5,164.3,85.9,167.8,85.9,167.8z M98.8,177.5c17.4,8.6,22.6,21.1,22.6,21.1C115.8,191.8,98.8,177.5,98.8,177.5z"/>
	<linearGradient id="SVGID_11_" gradientUnits="userSpaceOnUse" x1="197.257" y1="370.6483" x2="117.0868" y2="105.627">
		<stop  offset="0" style="stop-color:#007CE7"/>
		<stop  offset="1" style="stop-color:#3765B0"/>
	</linearGradient>
	<path class="st11" d="M141.2,212.7c-7.7,19.1,6.1,30.2,6.1,30.2s6.2-2.6,12.2-14.7c6-12-1.2-36.6-1.2-36.6S148.9,193.6,141.2,212.7
		z M143.8,235c0,0-1.6-13,8.6-28.8C152.3,206.2,145.2,226.5,143.8,235z"/>
	<linearGradient id="SVGID_12_" gradientUnits="userSpaceOnUse" x1="163.7187" y1="380.7938" x2="83.5485" y2="115.7725">
		<stop  offset="0" style="stop-color:#007CE7"/>
		<stop  offset="1" style="stop-color:#3765B0"/>
	</linearGradient>
	<path class="st12" d="M95.1,219.9c0,0,13.6,22.9,27,26.5c13.4,3.6,19.7,0.4,19.7,0.4s1.3-18.9-18.7-26
		C103.2,213.7,95.1,219.9,95.1,219.9z M110.3,225.2c19.1,2.9,28,13.2,28,13.2C130.8,233.6,110.3,225.2,110.3,225.2z"/>
	<linearGradient id="SVGID_13_" gradientUnits="userSpaceOnUse" x1="207.6792" y1="367.4955" x2="127.509" y2="102.4743">
		<stop  offset="0" style="stop-color:#007CE7"/>
		<stop  offset="1" style="stop-color:#3765B0"/>
	</linearGradient>
	<path class="st13" d="M161.4,247.3c-2.9,21.7,14.2,29.5,14.2,29.5s5.7-4.3,8.7-18.2c3-13.9-10.8-37.3-10.8-37.3
		S164.4,225.6,161.4,247.3z M169.9,269.5c0,0-5-13,1.3-31.8C171.2,237.6,169.2,260.4,169.9,269.5z"/>
	<linearGradient id="SVGID_14_" gradientUnits="userSpaceOnUse" x1="174.7033" y1="377.4709" x2="94.5331" y2="112.4496">
		<stop  offset="0" style="stop-color:#007CE7"/>
		<stop  offset="1" style="stop-color:#3765B0"/>
	</linearGradient>
	<path class="st14" d="M116,266.7c0,0,20,20,34.7,20.2c14.7,0.2,20.4-4.7,20.4-4.7s-3.6-19.7-26-21.9
		C122.6,258.1,116,266.7,116,266.7z M133,268.2c20.4-2,32.2,6.3,32.2,6.3C156.2,271.4,133,268.2,133,268.2z"/>
	<linearGradient id="SVGID_15_" gradientUnits="userSpaceOnUse" x1="227.2772" y1="361.567" x2="147.107" y2="96.5457">
		<stop  offset="0" style="stop-color:#007CE7"/>
		<stop  offset="1" style="stop-color:#3765B0"/>
	</linearGradient>
	<path class="st15" d="M189.8,277.7c0.7,22.7,20.4,27.7,20.4,27.7s5.3-5.4,6.1-20.1c0.8-14.8-18.1-36.3-18.1-36.3
		S189.1,255,189.8,277.7z M202.8,299c0,0-7.6-12.4-4.3-32.8C198.5,266.2,200.3,289.8,202.8,299z"/>
	<linearGradient id="SVGID_16_" gradientUnits="userSpaceOnUse" x1="194.4796" y1="371.4885" x2="114.3094" y2="106.4672">
		<stop  offset="0" style="stop-color:#007CE7"/>
		<stop  offset="1" style="stop-color:#3765B0"/>
	</linearGradient>
	<path class="st16" d="M144.7,305.2c0,0,24.9,17.1,40.6,14.8c15.7-2.3,20.9-8.3,20.9-8.3s-7.3-19.6-31.6-18
		C150.3,295.4,144.7,305.2,144.7,305.2z M163.1,303.9c21.4-5.5,35.5,1,35.5,1C188.5,303.3,163.1,303.9,163.1,303.9z"/>
	<linearGradient id="SVGID_17_" gradientUnits="userSpaceOnUse" x1="255.1304" y1="353.1413" x2="174.9602" y2="88.12">
		<stop  offset="0" style="stop-color:#007CE7"/>
		<stop  offset="1" style="stop-color:#3765B0"/>
	</linearGradient>
	<path class="st17" d="M226.1,303c7.4,21.4,27.7,20.4,27.7,20.4s3.5-6.7-0.2-21c-3.7-14.3-28.1-29.2-28.1-29.2
		S218.7,281.6,226.1,303z M244.9,319.4c0,0-11-9.6-13.9-30C231,289.4,239.8,311.4,244.9,319.4z"/>
	<linearGradient id="SVGID_18_" gradientUnits="userSpaceOnUse" x1="228.9816" y1="361.0515" x2="148.8114" y2="96.0302">
		<stop  offset="0" style="stop-color:#007CE7"/>
		<stop  offset="1" style="stop-color:#3765B0"/>
	</linearGradient>
	<path class="st18" d="M191.3,342.8c0,0,28.8,8.9,43.2,2c14.3-6.9,17.5-14.2,17.5-14.2s-12.9-16.5-35.6-7.7
		C193.7,331.7,191.3,342.8,191.3,342.8z M208.5,335.9c18.8-11.7,34.1-9.7,34.1-9.7C232.5,327.8,208.5,335.9,208.5,335.9z"/>
</g>
<linearGradient id="SVGID_19_" gradientUnits="userSpaceOnUse" x1="-31.6199" y1="200.6983" x2="165.1749" y2="200.6983" gradientTransform="matrix(-1 0 0 1 400.1427 0)">
	<stop  offset="0" style="stop-color:#3765B0"/>
	<stop  offset="1" style="stop-color:#007CE7"/>
</linearGradient>
<path class="st19" d="M240.2,351c0,0,1.8-4.3,6.9-6.4s18.9-8.7,54.2-16.6c35.3-7.9,82-52.2,88.5-58.5s25.8-31.9,35.6-63.8
	c9.8-31.9,5.8-61.8,3.4-74.3c-2.4-12.5-19.2-68.5-39.5-80.9l-2.1,9.7c0,0,22.2,16.9,34.9,70s-9.4,91.8-11.2,96.8
	c-1.8,5-21.2,44.4-65.6,74.8c0,0-14.8,10.3-37.4,17.8c-22.6,7.5-52.2,14.9-60.7,19.1c-8.5,4.3-12.2,8.9-12.2,8.9L240.2,351z"/>
<g>
	
		<linearGradient id="SVGID_20_" gradientUnits="userSpaceOnUse" x1="101.852" y1="354.4241" x2="21.6818" y2="89.4028" gradientTransform="matrix(-1 0 0 1 400.1427 0)">
		<stop  offset="0" style="stop-color:#007CE7"/>
		<stop  offset="1" style="stop-color:#3765B0"/>
	</linearGradient>
	<path class="st20" d="M356.2,72.9c0,0,19.4,16.7,32.9,16.2c13.4-0.5,18.4-5.1,18.4-5.1s-4.4-17.2-25-18
		C361.8,65.1,356.2,72.9,356.2,72.9z M371.8,73.4c18.6-2.7,29.8,4.1,29.8,4.1C393.3,75.2,371.8,73.4,371.8,73.4z"/>
	
		<linearGradient id="SVGID_21_" gradientUnits="userSpaceOnUse" x1="121.4604" y1="348.4925" x2="41.2901" y2="83.4712" gradientTransform="matrix(-1 0 0 1 400.1427 0)">
		<stop  offset="0" style="stop-color:#007CE7"/>
		<stop  offset="1" style="stop-color:#3765B0"/>
	</linearGradient>
	<path class="st21" d="M349,28.8c0,0,10.5,25,23.3,30.3c12.8,5.3,19.5,2.8,19.5,2.8s3.8-19-15.1-28.8C357.8,23.4,349,28.8,349,28.8z
		 M363.4,36.1c18.6,5.3,26,16.9,26,16.9C382.6,47.1,363.4,36.1,363.4,36.1z"/>
	
		<linearGradient id="SVGID_22_" gradientUnits="userSpaceOnUse" x1="83.1106" y1="360.0934" x2="2.9404" y2="95.0722" gradientTransform="matrix(-1 0 0 1 400.1427 0)">
		<stop  offset="0" style="stop-color:#007CE7"/>
		<stop  offset="1" style="stop-color:#3765B0"/>
	</linearGradient>
	<path class="st22" d="M397.2,52.8c-1.7,21.1,16,27.8,16,27.8s5.5-4.5,7.8-18.2c2.2-13.7-13.1-35.5-13.1-35.5S398.9,31.7,397.2,52.8
		z M407,73.9c0,0-5.8-12.3-0.5-30.9C406.5,42.9,405.7,65.1,407,73.9z"/>
	
		<linearGradient id="SVGID_23_" gradientUnits="userSpaceOnUse" x1="79.8604" y1="361.0767" x2="-0.3098" y2="96.0554" gradientTransform="matrix(-1 0 0 1 400.1427 0)">
		<stop  offset="0" style="stop-color:#007CE7"/>
		<stop  offset="1" style="stop-color:#3765B0"/>
	</linearGradient>
	<path class="st23" d="M373.8,95.6c0,0,14,21.4,27,24.7c13.1,3.3,19.1,0.2,19.1,0.2s0.6-17.7-19-24.3
		C381.3,89.7,373.8,95.6,373.8,95.6z M388.7,100.5c18.6,2.6,27.5,12.2,27.5,12.2C408.7,108.2,388.7,100.5,388.7,100.5z"/>
	
		<linearGradient id="SVGID_24_" gradientUnits="userSpaceOnUse" x1="53.9139" y1="368.9256" x2="-26.2563" y2="103.9043" gradientTransform="matrix(-1 0 0 1 400.1427 0)">
		<stop  offset="0" style="stop-color:#007CE7"/>
		<stop  offset="1" style="stop-color:#3765B0"/>
	</linearGradient>
	<path class="st24" d="M418.7,87.8c-7.5,19.8,7.6,31.1,7.6,31.1s6.6-2.8,12.5-15.3c6-12.5-2.6-37.8-2.6-37.8S426.3,67.9,418.7,87.8z
		 M422.3,110.7c0,0-2.1-13.4,8.1-29.9C430.4,80.9,423.5,101.9,422.3,110.7z"/>
	
		<linearGradient id="SVGID_25_" gradientUnits="userSpaceOnUse" x1="58.9961" y1="367.3882" x2="-21.1741" y2="102.3669" gradientTransform="matrix(-1 0 0 1 400.1427 0)">
		<stop  offset="0" style="stop-color:#007CE7"/>
		<stop  offset="1" style="stop-color:#3765B0"/>
	</linearGradient>
	<path class="st25" d="M389.3,125.7c0,0,8.8,24,20.8,30.1c12,6.1,18.5,4.5,18.5,4.5s4.5-17.2-13.1-28
		C398.1,121.6,389.3,125.7,389.3,125.7z M402.8,133.8c17.5,6.7,24,18.1,24,18.1C420.6,145.8,402.8,133.8,402.8,133.8z"/>
	
		<linearGradient id="SVGID_26_" gradientUnits="userSpaceOnUse" x1="29.225" y1="376.3941" x2="-50.9452" y2="111.3728" gradientTransform="matrix(-1 0 0 1 400.1427 0)">
		<stop  offset="0" style="stop-color:#007CE7"/>
		<stop  offset="1" style="stop-color:#3765B0"/>
	</linearGradient>
	<path class="st26" d="M434.9,128.1c-11.8,17.6,0.5,32.1,0.5,32.1s7-1.2,15.6-12.1c8.6-10.8,5.9-37.4,5.9-37.4
		S446.7,110.5,434.9,128.1z M433.3,151.3c0,0,0.9-13.6,14.6-27.3C447.9,124.1,436.4,143,433.3,151.3z"/>
	
		<linearGradient id="SVGID_27_" gradientUnits="userSpaceOnUse" x1="49.025" y1="370.4045" x2="-31.1452" y2="105.3832" gradientTransform="matrix(-1 0 0 1 400.1427 0)">
		<stop  offset="0" style="stop-color:#007CE7"/>
		<stop  offset="1" style="stop-color:#3765B0"/>
	</linearGradient>
	<path class="st27" d="M394.4,160.2c0,0,0.6,25.6,10,35.2c9.4,9.6,16.1,10.2,16.1,10.2s9.8-14.8-3.3-30.7
		C404,159.1,394.4,160.2,394.4,160.2z M404.5,172.2c14.4,12,16.9,24.8,16.9,24.8C417.5,189.3,404.5,172.2,404.5,172.2z"/>
	
		<linearGradient id="SVGID_28_" gradientUnits="userSpaceOnUse" x1="15.9035" y1="380.4239" x2="-64.2667" y2="115.4026" gradientTransform="matrix(-1 0 0 1 400.1427 0)">
		<stop  offset="0" style="stop-color:#007CE7"/>
		<stop  offset="1" style="stop-color:#3765B0"/>
	</linearGradient>
	<path class="st28" d="M436.8,177.2c-16.8,12.9-9.9,30.5-9.9,30.5s7,1.1,18.7-6.4c11.7-7.5,17.7-33.5,17.7-33.5
		S453.6,164.3,436.8,177.2z M427.7,198.6c0,0,5.3-12.5,22.6-21.1C450.4,177.5,433.4,191.8,427.7,198.6z"/>
	
		<linearGradient id="SVGID_29_" gradientUnits="userSpaceOnUse" x1="48.2191" y1="370.6483" x2="-31.9511" y2="105.627" gradientTransform="matrix(-1 0 0 1 400.1427 0)">
		<stop  offset="0" style="stop-color:#007CE7"/>
		<stop  offset="1" style="stop-color:#3765B0"/>
	</linearGradient>
	<path class="st29" d="M390.9,191.7c0,0-7.2,24.6-1.2,36.6c6,12,12.2,14.7,12.2,14.7s13.8-11.1,6.1-30.2
		C400.3,193.6,390.9,191.7,390.9,191.7z M396.8,206.2c10.1,15.8,8.6,28.8,8.6,28.8C404,226.5,396.8,206.2,396.8,206.2z"/>
	
		<linearGradient id="SVGID_30_" gradientUnits="userSpaceOnUse" x1="14.6808" y1="380.7938" x2="-65.4894" y2="115.7725" gradientTransform="matrix(-1 0 0 1 400.1427 0)">
		<stop  offset="0" style="stop-color:#007CE7"/>
		<stop  offset="1" style="stop-color:#3765B0"/>
	</linearGradient>
	<path class="st30" d="M426,220.8c-20,7.2-18.7,26-18.7,26s6.4,3.2,19.7-0.4c13.4-3.6,27-26.5,27-26.5S446,213.7,426,220.8z
		 M410.9,238.5c0,0,8.8-10.3,28-13.2C438.9,225.2,418.4,233.6,410.9,238.5z"/>
	
		<linearGradient id="SVGID_31_" gradientUnits="userSpaceOnUse" x1="58.6413" y1="367.4955" x2="-21.5289" y2="102.4743" gradientTransform="matrix(-1 0 0 1 400.1427 0)">
		<stop  offset="0" style="stop-color:#007CE7"/>
		<stop  offset="1" style="stop-color:#3765B0"/>
	</linearGradient>
	<path class="st31" d="M375.6,221.2c0,0-13.8,23.3-10.8,37.3c3,13.9,8.7,18.2,8.7,18.2s17.1-7.8,14.2-29.5
		C384.8,225.6,375.6,221.2,375.6,221.2z M378,237.6c6.3,18.9,1.3,31.8,1.3,31.8C380,260.4,378,237.6,378,237.6z"/>
	
		<linearGradient id="SVGID_32_" gradientUnits="userSpaceOnUse" x1="25.6654" y1="377.4709" x2="-54.5048" y2="112.4496" gradientTransform="matrix(-1 0 0 1 400.1427 0)">
		<stop  offset="0" style="stop-color:#007CE7"/>
		<stop  offset="1" style="stop-color:#3765B0"/>
	</linearGradient>
	<path class="st32" d="M404.2,260.3c-22.4,2.1-26,21.9-26,21.9s5.7,4.9,20.4,4.7c14.7-0.2,34.7-20.2,34.7-20.2
		S426.6,258.1,404.2,260.3z M384,274.4c0,0,11.8-8.3,32.2-6.3C416.2,268.2,392.9,271.4,384,274.4z"/>
	
		<linearGradient id="SVGID_33_" gradientUnits="userSpaceOnUse" x1="78.2393" y1="361.567" x2="-1.9309" y2="96.5457" gradientTransform="matrix(-1 0 0 1 400.1427 0)">
		<stop  offset="0" style="stop-color:#007CE7"/>
		<stop  offset="1" style="stop-color:#3765B0"/>
	</linearGradient>
	<path class="st33" d="M351,249c0,0-18.9,21.5-18.1,36.3c0.8,14.8,6.1,20.1,6.1,20.1s19.7-5.1,20.4-27.7C360.1,255,351,249,351,249z
		 M350.6,266.2c3.4,20.4-4.3,32.8-4.3,32.8C348.8,289.8,350.6,266.2,350.6,266.2z"/>
	
		<linearGradient id="SVGID_34_" gradientUnits="userSpaceOnUse" x1="45.4418" y1="371.4885" x2="-34.7285" y2="106.4672" gradientTransform="matrix(-1 0 0 1 400.1427 0)">
		<stop  offset="0" style="stop-color:#007CE7"/>
		<stop  offset="1" style="stop-color:#3765B0"/>
	</linearGradient>
	<path class="st34" d="M374.6,293.8c-24.3-1.6-31.6,18-31.6,18s5.2,6,20.9,8.3c15.7,2.3,40.6-14.8,40.6-14.8
		S398.9,295.4,374.6,293.8z M350.6,304.9c0,0,14-6.5,35.5-1C386.1,303.9,360.7,303.3,350.6,304.9z"/>
	
		<linearGradient id="SVGID_35_" gradientUnits="userSpaceOnUse" x1="106.0925" y1="353.1413" x2="25.9223" y2="88.12" gradientTransform="matrix(-1 0 0 1 400.1427 0)">
		<stop  offset="0" style="stop-color:#007CE7"/>
		<stop  offset="1" style="stop-color:#3765B0"/>
	</linearGradient>
	<path class="st35" d="M323.7,273.1c0,0-24.5,14.9-28.1,29.2c-3.7,14.3-0.2,21-0.2,21s20.3,1,27.7-20.4
		C330.5,281.6,323.7,273.1,323.7,273.1z M318.2,289.4c-2.9,20.4-13.9,30-13.9,30C309.4,311.4,318.2,289.4,318.2,289.4z"/>
	
		<linearGradient id="SVGID_36_" gradientUnits="userSpaceOnUse" x1="79.9437" y1="361.0515" x2="-0.2265" y2="96.0302" gradientTransform="matrix(-1 0 0 1 400.1427 0)">
		<stop  offset="0" style="stop-color:#007CE7"/>
		<stop  offset="1" style="stop-color:#3765B0"/>
	</linearGradient>
	<path class="st36" d="M332.8,322.9c-22.7-8.8-35.6,7.7-35.6,7.7s3.2,7.3,17.5,14.2c14.3,6.9,43.2-2,43.2-2S355.5,331.7,332.8,322.9
		z M306.6,326.3c0,0,15.3-2,34.1,9.7C340.7,335.9,316.6,327.8,306.6,326.3z"/>
</g>
<path class="st37" d="M351.9,103.3c0,0-55.1-7.7-75.8-24.3c0,0-24.6,15.8-78.1,24.3c0,0-10,120.5,76.3,158.6
	C274.3,261.8,358.2,234.8,351.9,103.3z M274.4,251.8c-76.8-33.9-67.9-141.1-67.9-141.1C254,103.2,276,89.1,276,89.1
	c18.4,14.8,67.4,21.6,67.4,21.6C349,227.7,274.4,251.8,274.4,251.8z"/>
<path class="st38" d="M343.4,110.7c0,0-49-6.8-67.4-21.6c0,0-21.9,14.1-69.5,21.6c0,0-8.9,107.2,67.9,141.1
	C274.4,251.8,349,227.7,343.4,110.7z M273,117l39.7,20.2l-0.9,2h-76.1l-1.6-1.7L273,117z M311.8,178.4v7.5h-73.6v-7.5H311.8z
	 M241.9,175v-32.4h10.6V175H241.9z M265.8,175v-32.4H281V175H265.8z M295.8,175v-32.4h10.6V175H295.8z M318.1,204.1H229v-15.6h89.1
	V204.1z"/>
</svg>
