<?xml version="1.0" encoding="utf-8"?>
<!-- Generator: Adobe Illustrator 25.2.1, SVG Export Plug-In . SVG Version: 6.00 Build 0)  -->
<!DOCTYPE svg PUBLIC "-//W3C//DTD SVG 1.1//EN" "http://www.w3.org/Graphics/SVG/1.1/DTD/svg11.dtd" [
	<!ENTITY ns_extend "http://ns.adobe.com/Extensibility/1.0/">
	<!ENTITY ns_ai "http://ns.adobe.com/AdobeIllustrator/10.0/">
	<!ENTITY ns_graphs "http://ns.adobe.com/Graphs/1.0/">
	<!ENTITY ns_vars "http://ns.adobe.com/Variables/1.0/">
	<!ENTITY ns_imrep "http://ns.adobe.com/ImageReplacement/1.0/">
	<!ENTITY ns_sfw "http://ns.adobe.com/SaveForWeb/1.0/">
	<!ENTITY ns_custom "http://ns.adobe.com/GenericCustomNamespace/1.0/">
	<!ENTITY ns_adobe_xpath "http://ns.adobe.com/XPath/1.0/">
]>
<svg version="1.1" id="Capa_1" xmlns:x="&ns_extend;" xmlns:i="&ns_ai;" xmlns:graph="&ns_graphs;"
	 xmlns="http://www.w3.org/2000/svg" xmlns:xlink="http://www.w3.org/1999/xlink" x="0px" y="0px" viewBox="0 0 542.3 542.3"
	 style="enable-background:new 0 0 542.3 542.3;" xml:space="preserve">
<style type="text/css">
	.st0{fill:#FDF4D2;}
	.st1{fill:#1E3C79;}
</style>
<metadata>
	<sfw  xmlns="&ns_sfw;">
		<slices></slices>
		<sliceSourceBounds  bottomLeftOrigin="true" height="1054.3" width="1054.3" x="-216" y="-944"></sliceSourceBounds>
	</sfw>
</metadata>
<g>
	<g>
		<defs>
			<rect id="SVGID_1_" x="0.7" width="542.3" height="542.3"/>
		</defs>
		<clipPath id="SVGID_2_">
			<use xlink:href="#SVGID_1_"  style="overflow:visible;"/>
		</clipPath>
		<g style="clip-path:url(#SVGID_2_);">
			
				<image style="overflow:visible;" width="1024" height="1024" xlink:href="logo.jpg"  transform="matrix(1.0296 0 0 1.0296 -252.2108 -246.5132)">
			</image>
		</g>
	</g>
	<rect x="2.6" y="383" class="st0" width="538.5" height="159.3"/>
</g>
<g>
	<g>
		<g>
			<path class="st1" d="M22.8,528.3v-1c2.4-0.3,2.7-0.7,2.2-2c-0.5-1.4-1.2-3.3-2-5.6h-7.9c-0.6,1.6-1.1,3.1-1.6,4.6
				c-0.8,2.4-0.3,2.7,2.7,3v1H7.7v-1c2.3-0.3,2.9-0.5,4.2-3.8l7.6-19.2l1.2-0.2c2.3,6.2,4.8,13.2,7.1,19.5c1.2,3.2,1.5,3.5,4.1,3.8
				v1H22.8z M19.1,508.8c-1.2,3.1-2.4,6.5-3.5,9.4h6.8L19.1,508.8z"/>
			<path class="st1" d="M60.5,510.2c-0.3-1.2-0.8-2.4-1.2-3c-0.6-1-1-1.2-3-1.2h-3.7v17.8c0,2.9,0.3,3.3,3.8,3.5v1H45.9v-1
				c3.4-0.2,3.7-0.6,3.7-3.5V506h-3.3c-2,0-2.6,0.2-3.2,1.3c-0.4,0.7-0.7,1.6-1.2,3h-1.1c0.2-2.2,0.4-4.5,0.5-6.6h0.8
				c0.5,0.9,1,0.8,2,0.8h14.5c1,0,1.3-0.1,1.9-0.8h0.9c0,1.7,0.1,4.3,0.3,6.5L60.5,510.2z"/>
			<path class="st1" d="M86.1,528.6c-0.5,0-0.9,0-1.4-0.1c-2.7-0.2-4.1-0.9-5.7-3.1c-1.4-1.9-2.7-4.2-3.8-6
				c-0.7-1.2-1.2-1.4-3.1-1.4h-1.3v5.7c0,3.1,0.4,3.3,3.3,3.6v1h-9.8v-1c3-0.3,3.3-0.5,3.3-3.6v-14.6c0-3.1-0.4-3.2-3.3-3.5v-1h9.3
				c2.7,0,4.5,0.3,5.8,1.2c1.5,1,2.5,2.6,2.5,4.8c0,3.1-2,5.1-4.7,6.3c0.7,1.1,2.2,3.6,3.3,5.2c1.4,1.9,2,2.9,2.9,3.8
				c1,1.1,1.8,1.5,2.7,1.7L86.1,528.6z M72.6,516.7c1.9,0,3.1-0.3,4-1.1c1.4-1.1,2-2.5,2-4.5c0-3.9-2.6-5.3-5.4-5.3
				c-1.1,0-1.7,0.1-1.9,0.4c-0.3,0.3-0.4,0.6-0.4,1.6v9H72.6z"/>
			<path class="st1" d="M99.1,528.3v-1c2.4-0.3,2.7-0.7,2.2-2c-0.5-1.4-1.2-3.3-2-5.6h-7.9c-0.6,1.6-1.1,3.1-1.6,4.6
				c-0.8,2.4-0.3,2.7,2.7,3v1H84v-1c2.3-0.3,2.9-0.5,4.2-3.8l7.6-19.2l1.2-0.2c2.3,6.2,4.8,13.2,7.1,19.5c1.2,3.2,1.5,3.5,4.1,3.8v1
				H99.1z M95.5,508.8c-1.2,3.1-2.4,6.5-3.5,9.4h6.8L95.5,508.8z"/>
			<path class="st1" d="M119.2,504.5c5.2,0,8.4,1,10.7,3.2c1.8,1.8,3.1,4.3,3.1,7.8c0,4.3-1.8,7.7-4.6,9.9
				c-2.8,2.1-6.3,2.9-10.8,2.9H109v-1c3.1-0.3,3.3-0.5,3.3-3.5v-14.6c0-3.1-0.4-3.3-3.3-3.6v-1H119.2z M115.5,523.4
				c0,2.7,1.2,3.5,3.9,3.5c6.6,0,9.9-4.5,9.9-10.9c0-4-1.4-7-4.2-8.8c-1.7-1.1-3.8-1.5-6.2-1.5c-1.6,0-2.5,0.2-2.9,0.5
				c-0.3,0.2-0.5,0.6-0.5,2V523.4z"/>
			<path class="st1" d="M136.4,528.3v-1c3-0.3,3.3-0.5,3.3-3.6v-14.5c0-3.1-0.3-3.3-3.3-3.6v-1h9.8v1c-3,0.3-3.3,0.5-3.3,3.6v14.5
				c0,3.1,0.3,3.3,3.3,3.6v1H136.4z"/>
			<path class="st1" d="M168.7,510.2c-0.3-1.2-0.8-2.4-1.2-3c-0.6-1-1-1.2-3-1.2h-3.7v17.8c0,2.9,0.3,3.3,3.8,3.5v1H154v-1
				c3.4-0.2,3.7-0.6,3.7-3.5V506h-3.3c-2,0-2.6,0.2-3.2,1.3c-0.4,0.7-0.7,1.6-1.2,3h-1.1c0.2-2.2,0.4-4.5,0.5-6.6h0.8
				c0.5,0.9,1,0.8,2,0.8h14.5c1,0,1.3-0.1,1.9-0.8h0.9c0,1.7,0.1,4.3,0.3,6.5L168.7,510.2z"/>
			<path class="st1" d="M172.5,528.3v-1c3-0.3,3.3-0.5,3.3-3.6v-14.5c0-3.1-0.3-3.3-3.3-3.6v-1h9.8v1c-3,0.3-3.3,0.5-3.3,3.6v14.5
				c0,3.1,0.3,3.3,3.3,3.6v1H172.5z"/>
			<path class="st1" d="M198,504c6.2,0,11.8,4.8,11.8,12.1c0,7.9-5.3,12.8-12.1,12.8c-7,0-12.1-5.3-12.1-12.2
				C185.6,510.1,190.3,504,198,504z M197.2,505.3c-4.1,0-7.8,3.4-7.8,10.3c0,6.8,3.7,11.8,8.9,11.8c4.4,0,7.7-3.3,7.7-10.3
				C206.1,509.4,202,505.3,197.2,505.3z"/>
			<path class="st1" d="M238.4,505.5c-2.3,0.3-3.1,0.6-3.2,2.3c0,1.2-0.1,2.7-0.1,6.1v14.7h-1.4l-15.6-19.1v9.1c0,3.3,0.1,4.9,0.2,6
				c0.1,1.9,1,2.4,3.6,2.6v1H213v-1c2.3-0.2,3.1-0.7,3.3-2.5c0.1-1.2,0.2-2.8,0.2-6.1v-9.3c0-1-0.1-1.6-0.7-2.4
				c-0.7-0.9-1.5-1.1-3.3-1.3v-1h5.5l15.5,18.4v-9c0-3.4-0.1-5-0.2-6.1c-0.1-1.6-1-2.2-3.9-2.3v-1h9V505.5z"/>
			<path class="st1" d="M261.9,504c6.2,0,11.8,4.8,11.8,12.1c0,7.9-5.3,12.8-12.1,12.8c-7,0-12.1-5.3-12.1-12.2
				C249.6,510.1,254.2,504,261.9,504z M261.2,505.3c-4.1,0-7.8,3.4-7.8,10.3c0,6.8,3.7,11.8,8.9,11.8c4.4,0,7.7-3.3,7.7-10.3
				C270,509.4,266,505.3,261.2,505.3z"/>
			<path class="st1" d="M293.1,510.2c-0.3-1-0.6-1.9-1.1-2.7c-0.7-1.2-1.2-1.5-3.3-1.5h-3.9c-1.1,0-1.2,0.1-1.2,1.2v8.4h4.5
				c2.6,0,2.8-0.4,3.4-3h1.1v7.6h-1.1c-0.5-2.6-0.7-3.1-3.3-3.1h-4.5v6.5c0,3.2,0.4,3.3,3.7,3.6v1h-10.2v-1c3-0.2,3.3-0.5,3.3-3.6
				v-14.5c0-3.2-0.4-3.3-3.3-3.6v-1h11.6c3.3,0,4.5,0,5.2-0.1c0,1.3,0.2,3.9,0.4,5.6L293.1,510.2z"/>
			<path class="st1" d="M324.7,522.5c-0.2,1-1.2,4.7-1.6,5.8h-17.8v-1c3.4-0.3,3.7-0.6,3.7-3.6v-14.4c0-3.3-0.4-3.4-3.1-3.7v-1h11.2
				c3.4,0,4.9,0,5.3-0.1c0,0.9,0.2,3.7,0.3,5.6l-1.1,0.2c-0.3-1.2-0.7-2-1.1-2.8c-0.6-1.2-1.4-1.5-3.6-1.5h-3.5
				c-1.1,0-1.2,0.1-1.2,1.2v8.1h4.1c2.7,0,2.9-0.5,3.4-3h1.1v7.5h-1.1c-0.5-2.6-0.8-3-3.4-3h-4v7.3c0,2.6,0.8,2.8,2.6,2.8h3.4
				c2.2,0,2.6-0.3,3.4-1.3c0.7-0.8,1.5-2.3,2-3.4L324.7,522.5z"/>
			<path class="st1" d="M338.5,528.3v-1c2.3-0.3,2.5-0.6,1.8-1.8c-0.8-1.4-2.4-4.2-4.7-7.7c-1.7,2.7-3.3,5.2-4.5,7.3
				c-0.8,1.5-0.5,1.9,1.9,2.2v1h-8.5v-1c2.2-0.2,3.2-0.8,4.3-2.1c1.4-1.8,2.8-3.9,6-8.8c-1.9-3.1-3.5-5.7-4.8-7.6
				c-1.6-2.4-2-2.9-4.7-3.2v-1h9.1v1c-2.3,0.2-2.3,0.6-1.8,1.6c1.2,2,2.5,4.2,4.1,6.7c1.4-2.2,2.7-4.3,3.7-6c0.9-1.6,0.6-2-1.8-2.3
				v-1h8.3v1c-2.7,0.4-3.4,0.7-5,2.9c-1.2,1.7-1.9,2.8-4.5,6.6c2,3.1,3.8,6.1,5.6,8.8c1.8,2.8,2.5,3.2,5.1,3.4v1H338.5z"/>
			<path class="st1" d="M370.5,522.4c-0.5,1.8-1.5,4.4-2,5.5c-1.1,0.2-3.9,0.9-6.7,0.9c-8.7,0-13.2-5.8-13.2-12.2
				c0-7.5,5.7-12.6,13.9-12.6c3.1,0,5.7,0.7,6.9,0.8c0.1,1.6,0.4,3.8,0.7,5.7l-1.1,0.3c-0.7-2.4-1.6-3.9-3.5-4.7
				c-1-0.4-2.4-0.7-3.8-0.7c-6,0-9.2,4.5-9.2,10.5c0,7.1,3.7,11.6,9.6,11.6c3.7,0,5.6-1.7,7.4-5.4L370.5,522.4z"/>
			<path class="st1" d="M392.6,522.5c-0.2,1-1.2,4.7-1.6,5.8h-17.8v-1c3.4-0.3,3.7-0.6,3.7-3.6v-14.4c0-3.3-0.4-3.4-3.1-3.7v-1H385
				c3.4,0,4.9,0,5.3-0.1c0,0.9,0.2,3.7,0.3,5.6l-1.1,0.2c-0.3-1.2-0.7-2-1.1-2.8c-0.6-1.2-1.4-1.5-3.6-1.5h-3.5
				c-1.1,0-1.2,0.1-1.2,1.2v8.1h4.1c2.7,0,2.9-0.5,3.4-3h1.1v7.5h-1.1c-0.5-2.6-0.8-3-3.4-3h-4v7.3c0,2.6,0.8,2.8,2.6,2.8h3.4
				c2.2,0,2.6-0.3,3.4-1.3c0.7-0.8,1.5-2.3,2-3.4L392.6,522.5z"/>
			<path class="st1" d="M413.5,522.2c-0.2,1.1-1.3,4.9-1.7,6.1h-17v-1c3.3-0.3,3.6-0.5,3.6-3.6v-14.5c0-3.1-0.4-3.3-3.3-3.6v-1h9.8
				v1c-2.9,0.3-3.3,0.4-3.3,3.6V524c0,2.2,0.3,2.7,2.4,2.8c0,0,2.7,0,2.9,0c1.9,0,2.4-0.2,3.3-1.1c0.9-1,1.7-2.4,2.2-3.8
				L413.5,522.2z"/>
			<path class="st1" d="M434.3,522.2c-0.2,1.1-1.3,4.9-1.7,6.1h-17v-1c3.3-0.3,3.6-0.5,3.6-3.6v-14.5c0-3.1-0.4-3.3-3.3-3.6v-1h9.8
				v1c-2.9,0.3-3.3,0.4-3.3,3.6V524c0,2.2,0.3,2.7,2.4,2.8c0,0,2.7,0,2.9,0c1.9,0,2.4-0.2,3.3-1.1c0.9-1,1.7-2.4,2.2-3.8
				L434.3,522.2z"/>
			<path class="st1" d="M455.7,522.5c-0.2,1-1.2,4.7-1.6,5.8h-17.8v-1c3.4-0.3,3.7-0.6,3.7-3.6v-14.4c0-3.3-0.4-3.4-3.1-3.7v-1H448
				c3.4,0,4.9,0,5.3-0.1c0,0.9,0.2,3.7,0.3,5.6l-1.1,0.2c-0.3-1.2-0.7-2-1.1-2.8c-0.6-1.2-1.4-1.5-3.6-1.5h-3.5
				c-1.1,0-1.2,0.1-1.2,1.2v8.1h4.1c2.7,0,2.9-0.5,3.4-3h1.1v7.5h-1.1c-0.5-2.6-0.8-3-3.4-3h-4v7.3c0,2.6,0.8,2.8,2.6,2.8h3.4
				c2.2,0,2.6-0.3,3.4-1.3c0.7-0.8,1.5-2.3,2-3.4L455.7,522.5z"/>
			<path class="st1" d="M483.5,505.5c-2.3,0.3-3.1,0.6-3.2,2.3c0,1.2-0.1,2.7-0.1,6.1v14.7h-1.4l-15.6-19.1v9.1c0,3.3,0.1,4.9,0.2,6
				c0.1,1.9,1,2.4,3.6,2.6v1h-8.9v-1c2.3-0.2,3.1-0.7,3.3-2.5c0.1-1.2,0.2-2.8,0.2-6.1v-9.3c0-1-0.1-1.6-0.7-2.4
				c-0.7-0.9-1.5-1.1-3.3-1.3v-1h5.5l15.5,18.4v-9c0-3.4-0.1-5-0.2-6.1c-0.1-1.6-1-2.2-3.9-2.3v-1h9V505.5z"/>
			<path class="st1" d="M508,522.4c-0.5,1.8-1.5,4.4-2,5.5c-1.1,0.2-3.9,0.9-6.7,0.9c-8.7,0-13.2-5.8-13.2-12.2
				c0-7.5,5.7-12.6,13.9-12.6c3.1,0,5.7,0.7,6.9,0.8c0.1,1.6,0.4,3.8,0.7,5.7l-1.1,0.3c-0.7-2.4-1.6-3.9-3.5-4.7
				c-1-0.4-2.4-0.7-3.8-0.7c-6,0-9.2,4.5-9.2,10.5c0,7.1,3.7,11.6,9.6,11.6c3.7,0,5.6-1.7,7.4-5.4L508,522.4z"/>
			<path class="st1" d="M530.2,522.5c-0.2,1-1.2,4.7-1.6,5.8h-17.8v-1c3.4-0.3,3.7-0.6,3.7-3.6v-14.4c0-3.3-0.4-3.4-3.1-3.7v-1h11.2
				c3.4,0,4.9,0,5.3-0.1c0,0.9,0.2,3.7,0.3,5.6l-1.1,0.2c-0.3-1.2-0.7-2-1.1-2.8c-0.6-1.2-1.4-1.5-3.6-1.5h-3.5
				c-1.1,0-1.2,0.1-1.2,1.2v8.1h4.1c2.7,0,2.9-0.5,3.4-3h1.1v7.5h-1.1c-0.5-2.6-0.8-3-3.4-3h-4v7.3c0,2.6,0.8,2.8,2.6,2.8h3.4
				c2.2,0,2.6-0.3,3.4-1.3c0.7-0.8,1.5-2.3,2-3.4L530.2,522.5z"/>
		</g>
	</g>
	<g>
		<g>
			<path class="st1" d="M82.1,408.6c-5.4,0.4-7.3,2.1-7.5,7c-0.1,2.4-0.3,6.9-0.3,16.7v11.5c0,10.8-1,19.1-6,25.6
				c-4,5.2-9.8,6.8-15.7,6.8c-5,0-10.2-1.3-14-4.9c-5.1-4.9-7.6-12.2-7.6-24.7v-27.1c0-9.6-0.7-10.2-7.5-10.9v-3h22.4v3
				c-6.8,0.5-7.5,1.4-7.5,10.9v26.6c0,15.5,5.9,24,16.1,24c12.1,0,16-9.4,16-27v-10.8c0-9.8-0.3-13.8-0.4-16.7
				c-0.3-4.8-2.2-6.6-8.5-7v-3h20.5V408.6z"/>
			<path class="st1" d="M145.8,408.6c-5.5,0.7-7.3,1.8-7.5,6.7c-0.1,3.4-0.3,7.9-0.3,17.8v42.6h-3.2L98.3,420v26.6
				c0,9.6,0.3,14.3,0.4,17.4c0.2,5.4,2.3,7,8.5,7.7v3H86.4v-3c5.3-0.5,7.3-2.1,7.7-7.3c0.3-3.4,0.4-8.2,0.4-17.9v-27.1
				c0-3-0.2-4.7-1.7-7c-1.6-2.7-3.4-3.3-7.6-3.8v-3H98l36.2,53.5v-26c0-9.9-0.2-14.5-0.4-17.6c-0.3-4.8-2.2-6.3-9-6.8v-3h21.1V408.6
				z"/>
			<path class="st1" d="M151.9,474.7v-3c7-1,7.7-1.4,7.7-10.4v-42.2c0-9.1-0.7-9.6-7.7-10.5v-3h22.9v3c-7.1,1-7.8,1.4-7.8,10.5v42.2
				c0,9.1,0.7,9.5,7.8,10.4v3H151.9z"/>
			<path class="st1" d="M234.5,408.6c-5.7,1-7.2,1.9-10.2,11.5c-2.3,7-14.1,42.6-18.3,55.8h-2.8c-5-17.1-12.4-42-17.2-57.7
				c-2.4-7.9-3.8-8.9-9-9.6v-3h21.7v3c-6.3,0.9-6.7,2.1-5.5,6.1c2.1,7.8,8.4,28.9,13.7,46.6c4.5-13.7,10.2-31,14.2-44.4
				c1.9-6.2,0.9-7.1-6.1-8.2v-3h19.6V408.6z"/>
			<path class="st1" d="M279.6,457.8c-0.5,2.8-2.8,13.7-3.7,16.9h-41.5v-3c7.9-0.7,8.5-1.7,8.5-10.4v-42c0-9.5-0.9-10-7.3-10.7v-3
				h26.1c8,0,11.4-0.1,12.4-0.2c0.1,2.7,0.4,10.6,0.8,16.3l-2.6,0.5c-0.8-3.6-1.6-5.8-2.6-8.1c-1.4-3.5-3.3-4.3-8.5-4.3h-8.1
				c-2.6,0-2.8,0.3-2.8,3.4v23.5h9.5c6.4,0,6.8-1.6,7.9-8.8h2.6v21.9h-2.6c-1.1-7.7-1.8-8.7-7.9-8.7h-9.4v21.2
				c0,7.4,1.9,8.1,6.1,8.2h7.9c5.2,0,6.1-1,7.9-3.7c1.6-2.2,3.4-6.6,4.6-9.8L279.6,457.8z"/>
			<path class="st1" d="M336.2,475.5c-1.1,0-2-0.1-3.2-0.2c-6.2-0.5-9.6-2.6-13.3-9.1c-3.2-5.4-6.2-12.1-9-17.5
				c-1.7-3.4-2.8-4-7.2-4h-3v16.7c0,9,0.9,9.6,7.8,10.4v3h-22.8v-3c7.1-1,7.7-1.4,7.7-10.4v-42.4c0-9-0.9-9.4-7.7-10.3v-3h21.8
				c6.2,0,10.4,1,13.7,3.6c3.5,2.8,5.8,7.5,5.8,14c0,9.1-4.7,14.9-11,18.3c1.5,3.3,5.2,10.4,7.8,15.2c3.2,5.6,4.8,8.3,6.7,10.9
				c2.3,3.1,4.3,4.3,6.2,4.9L336.2,475.5z M304.7,441c4.4,0,7.3-0.9,9.4-3.1c3.3-3.1,4.7-7.3,4.7-13.1c0-11.4-6.1-15.5-12.6-15.5
				c-2.5,0-3.9,0.4-4.5,1.1c-0.8,0.7-1,1.8-1,4.6v26H304.7z"/>
			<path class="st1" d="M367.6,421.7c-1.5-7-3.8-13.9-11.9-13.9c-6.7,0-9,6.1-9,11.6c0,7.3,3.8,11.1,10.8,15.6
				c10.2,6.6,14.7,11.5,14.7,21.6c0,11.2-7.8,19.7-18.8,19.7c-5.1,0-9.6-1.8-13.1-3.5c-0.7-3-1.7-10.2-2.3-15.9l2.6-0.8
				c1.7,7.1,5.5,16.4,14.3,16.4c6.1,0,9.9-5.3,9.9-12.2c0-8.2-3.5-11.5-11-16.6c-9-6.1-14-11.2-14-21c0-9.5,6.3-18.4,17.6-18.4
				c4.8,0,9.5,1.6,11.3,2c0.3,3.8,0.7,8.1,1.4,15L367.6,421.7z"/>
			<path class="st1" d="M379.9,474.7v-3c7-1,7.7-1.4,7.7-10.4v-42.2c0-9.1-0.7-9.6-7.7-10.5v-3h22.9v3c-7.1,1-7.8,1.4-7.8,10.5v42.2
				c0,9.1,0.7,9.5,7.8,10.4v3H379.9z"/>
			<path class="st1" d="M455.4,422.3c-0.8-3.4-1.8-6.9-2.7-8.8c-1.4-2.9-2.2-3.6-6.9-3.6h-8.5v51.8c0,8.3,0.7,9.5,8.8,10.1v3h-24.8
				v-3c7.9-0.6,8.6-1.7,8.6-10.1v-51.8H422c-4.7,0-6.1,0.6-7.5,3.8c-1,2.1-1.7,4.7-2.8,8.6h-2.6c0.5-6.5,1-13.2,1.3-19.1h2
				c1.3,2.6,2.2,2.4,4.6,2.4h33.8c2.4,0,3.1-0.4,4.4-2.4h2c0,5,0.3,12.6,0.8,18.8L455.4,422.3z"/>
			<path class="st1" d="M510.4,408.6c-6,0.9-7,2-10.4,8.8c-3.8,7.8-7,15.1-11.2,24.6c-1,2.4-1.3,3.7-1.3,6.3v13.1
				c0,8.8,0.8,9.5,8.7,10.4v3h-24.5v-3c7.8-1.3,8.4-1.5,8.4-10.4v-13.7c0-2.1-0.3-3.1-1.7-6.2c-3-6.9-5.9-13.6-10.5-23.6
				c-3.3-7.2-4.2-8.5-10-9.2v-3h21v3c-6.1,1.1-5.8,2.4-4.3,6.1c3.6,8.2,7.6,17.8,11.2,25.7c3.1-7.1,7.9-18.7,10.3-24.6
				c2-5.3,1.7-6.4-5-7.2v-3h19.3V408.6z"/>
		</g>
	</g>
</g>
</svg>
