<?xml version="1.0" encoding="utf-8"?>
<!-- Generator: Adobe Illustrator 25.2.1, SVG Export Plug-In . SVG Version: 6.00 Build 0)  -->
<!DOCTYPE svg PUBLIC "-//W3C//DTD SVG 1.1//EN" "http://www.w3.org/Graphics/SVG/1.1/DTD/svg11.dtd" [
	<!ENTITY ns_extend "http://ns.adobe.com/Extensibility/1.0/">
	<!ENTITY ns_ai "http://ns.adobe.com/AdobeIllustrator/10.0/">
	<!ENTITY ns_graphs "http://ns.adobe.com/Graphs/1.0/">
	<!ENTITY ns_vars "http://ns.adobe.com/Variables/1.0/">
	<!ENTITY ns_imrep "http://ns.adobe.com/ImageReplacement/1.0/">
	<!ENTITY ns_sfw "http://ns.adobe.com/SaveForWeb/1.0/">
	<!ENTITY ns_custom "http://ns.adobe.com/GenericCustomNamespace/1.0/">
	<!ENTITY ns_adobe_xpath "http://ns.adobe.com/XPath/1.0/">
]>
<svg version="1.1" id="Capa_1" xmlns:x="&ns_extend;" xmlns:i="&ns_ai;" xmlns:graph="&ns_graphs;"
	 xmlns="http://www.w3.org/2000/svg" xmlns:xlink="http://www.w3.org/1999/xlink" x="0px" y="0px" viewBox="0 0 542.3 542.3"
	 style="enable-background:new 0 0 542.3 542.3;" xml:space="preserve">
<style type="text/css">
	.st0{fill:#C0B7B1;}
	.st1{fill:#1E3C79;}
	.st2{fill:url(#SVGID_1_);}
	.st3{fill:url(#SVGID_2_);}
	.st4{fill:url(#SVGID_3_);}
	.st5{fill:url(#SVGID_4_);}
	.st6{fill:url(#SVGID_5_);}
	.st7{fill:url(#SVGID_6_);}
	.st8{fill:url(#SVGID_7_);}
	.st9{fill:url(#SVGID_8_);}
	.st10{fill:url(#SVGID_9_);}
	.st11{fill:url(#SVGID_10_);}
	.st12{fill:url(#SVGID_11_);}
	.st13{fill:url(#SVGID_12_);}
	.st14{fill:url(#SVGID_13_);}
	.st15{fill:url(#SVGID_14_);}
	.st16{fill:url(#SVGID_15_);}
	.st17{fill:url(#SVGID_16_);}
	.st18{fill:url(#SVGID_17_);}
	.st19{fill:url(#SVGID_18_);}
	.st20{fill:url(#SVGID_19_);}
	.st21{fill:url(#SVGID_20_);}
	.st22{fill:url(#SVGID_21_);}
	.st23{fill:url(#SVGID_22_);}
	.st24{fill:url(#SVGID_23_);}
	.st25{fill:url(#SVGID_24_);}
	.st26{fill:url(#SVGID_25_);}
	.st27{fill:url(#SVGID_26_);}
	.st28{fill:url(#SVGID_27_);}
	.st29{fill:url(#SVGID_28_);}
	.st30{fill:url(#SVGID_29_);}
	.st31{fill:url(#SVGID_30_);}
	.st32{fill:url(#SVGID_31_);}
	.st33{fill:url(#SVGID_32_);}
	.st34{fill:url(#SVGID_33_);}
	.st35{fill:url(#SVGID_34_);}
	.st36{fill:url(#SVGID_35_);}
	.st37{fill:url(#SVGID_36_);}
	.st38{fill:#7C90A3;}
	.st39{fill:#19408D;}
	.st40{fill:#252627;}
</style>
<metadata>
	<sfw  xmlns="&ns_sfw;">
		<slices></slices>
		<sliceSourceBounds  bottomLeftOrigin="true" height="2364.4" width="5214.6" x="-1745.3" y="-1857.8"></sliceSourceBounds>
		<optimizationSettings>
			<targetSettings  fileFormat="PNG24Format" targetSettingsID="0">
				<PNG24Format  filtered="false" interlaced="false" matteColor="#FFFFFF" noMatteColor="false" transparency="true">
					</PNG24Format>
			</targetSettings>
		</optimizationSettings>
	</sfw>
</metadata>
<rect x="-1745.3" y="62.5" class="st0" width="1509.4" height="2337.6"/>
<g>
	<g>
		<g>
			<path class="st1" d="M22.8,877.6v-1c2.4-0.3,2.7-0.7,2.2-2c-0.5-1.4-1.2-3.3-2-5.6h-7.9c-0.6,1.6-1.1,3.1-1.6,4.6
				c-0.8,2.4-0.3,2.7,2.7,3v1H7.7v-1c2.3-0.3,2.9-0.5,4.2-3.8l7.6-19.2l1.2-0.2c2.3,6.2,4.8,13.2,7.1,19.5c1.2,3.2,1.5,3.5,4.1,3.8
				v1L22.8,877.6L22.8,877.6z M19.1,858.1c-1.2,3.1-2.4,6.5-3.5,9.4h6.8L19.1,858.1z"/>
			<path class="st1" d="M60.5,859.5c-0.3-1.2-0.8-2.4-1.2-3c-0.6-1-1-1.2-3-1.2h-3.7v17.8c0,2.9,0.3,3.3,3.8,3.5v1H45.9v-1
				c3.4-0.2,3.7-0.6,3.7-3.5v-17.8h-3.3c-2,0-2.6,0.2-3.2,1.3c-0.4,0.7-0.7,1.6-1.2,3h-1.1c0.2-2.2,0.4-4.5,0.5-6.6h0.8
				c0.5,0.9,1,0.8,2,0.8h14.5c1,0,1.3-0.1,1.9-0.8h0.9c0,1.7,0.1,4.3,0.3,6.5H60.5z"/>
			<path class="st1" d="M86.1,877.9c-0.5,0-0.9,0-1.4-0.1c-2.7-0.2-4.1-0.9-5.7-3.1c-1.4-1.9-2.7-4.2-3.8-6
				c-0.7-1.2-1.2-1.4-3.1-1.4h-1.3v5.7c0,3.1,0.4,3.3,3.3,3.6v1h-9.8v-1c3-0.3,3.3-0.5,3.3-3.6v-14.6c0-3.1-0.4-3.2-3.3-3.5v-1h9.3
				c2.7,0,4.5,0.3,5.8,1.2c1.5,1,2.5,2.6,2.5,4.8c0,3.1-2,5.1-4.7,6.3c0.7,1.1,2.2,3.6,3.3,5.2c1.4,1.9,2,2.9,2.9,3.8
				c1,1.1,1.8,1.5,2.7,1.7L86.1,877.9z M72.6,866c1.9,0,3.1-0.3,4-1.1c1.4-1.1,2-2.5,2-4.5c0-3.9-2.6-5.3-5.4-5.3
				c-1.1,0-1.7,0.1-1.9,0.4c-0.3,0.3-0.4,0.6-0.4,1.6v9h1.7V866z"/>
			<path class="st1" d="M99.1,877.6v-1c2.4-0.3,2.7-0.7,2.2-2c-0.5-1.4-1.2-3.3-2-5.6h-7.9c-0.6,1.6-1.1,3.1-1.6,4.6
				c-0.8,2.4-0.3,2.7,2.7,3v1H84v-1c2.3-0.3,2.9-0.5,4.2-3.8l7.6-19.2l1.2-0.2c2.3,6.2,4.8,13.2,7.1,19.5c1.2,3.2,1.5,3.5,4.1,3.8v1
				L99.1,877.6L99.1,877.6z M95.5,858.1c-1.2,3.1-2.4,6.5-3.5,9.4h6.8L95.5,858.1z"/>
			<path class="st1" d="M119.2,853.8c5.2,0,8.4,1,10.7,3.2c1.8,1.8,3.1,4.3,3.1,7.8c0,4.3-1.8,7.7-4.6,9.9
				c-2.8,2.1-6.3,2.9-10.8,2.9H109v-1c3.1-0.3,3.3-0.5,3.3-3.5v-14.6c0-3.1-0.4-3.3-3.3-3.6v-1h10.2V853.8z M115.5,872.7
				c0,2.7,1.2,3.5,3.9,3.5c6.6,0,9.9-4.5,9.9-10.9c0-4-1.4-7-4.2-8.8c-1.7-1.1-3.8-1.5-6.2-1.5c-1.6,0-2.5,0.2-2.9,0.5
				c-0.3,0.2-0.5,0.6-0.5,2C115.5,857.5,115.5,872.7,115.5,872.7z"/>
			<path class="st1" d="M136.4,877.6v-1c3-0.3,3.3-0.5,3.3-3.6v-14.5c0-3.1-0.3-3.3-3.3-3.6v-1h9.8v1c-3,0.3-3.3,0.5-3.3,3.6V873
				c0,3.1,0.3,3.3,3.3,3.6v1H136.4z"/>
			<path class="st1" d="M168.7,859.5c-0.3-1.2-0.8-2.4-1.2-3c-0.6-1-1-1.2-3-1.2h-3.7v17.8c0,2.9,0.3,3.3,3.8,3.5v1H154v-1
				c3.4-0.2,3.7-0.6,3.7-3.5v-17.8h-3.3c-2,0-2.6,0.2-3.2,1.3c-0.4,0.7-0.7,1.6-1.2,3h-1.1c0.2-2.2,0.4-4.5,0.5-6.6h0.8
				c0.5,0.9,1,0.8,2,0.8h14.5c1,0,1.3-0.1,1.9-0.8h0.9c0,1.7,0.1,4.3,0.3,6.5H168.7z"/>
			<path class="st1" d="M172.5,877.6v-1c3-0.3,3.3-0.5,3.3-3.6v-14.5c0-3.1-0.3-3.3-3.3-3.6v-1h9.8v1c-3,0.3-3.3,0.5-3.3,3.6V873
				c0,3.1,0.3,3.3,3.3,3.6v1H172.5z"/>
			<path class="st1" d="M198,853.3c6.2,0,11.8,4.8,11.8,12.1c0,7.9-5.3,12.8-12.1,12.8c-7,0-12.1-5.3-12.1-12.2
				C185.6,859.4,190.3,853.3,198,853.3z M197.2,854.6c-4.1,0-7.8,3.4-7.8,10.3c0,6.8,3.7,11.8,8.9,11.8c4.4,0,7.7-3.3,7.7-10.3
				C206.1,858.7,202,854.6,197.2,854.6z"/>
			<path class="st1" d="M238.4,854.8c-2.3,0.3-3.1,0.6-3.2,2.3c0,1.2-0.1,2.7-0.1,6.1v14.7h-1.4l-15.6-19.1v9.1c0,3.3,0.1,4.9,0.2,6
				c0.1,1.9,1,2.4,3.6,2.6v1H213v-1c2.3-0.2,3.1-0.7,3.3-2.5c0.1-1.2,0.2-2.8,0.2-6.1v-9.3c0-1-0.1-1.6-0.7-2.4
				c-0.7-0.9-1.5-1.1-3.3-1.3v-1h5.5l15.5,18.4v-9c0-3.4-0.1-5-0.2-6.1c-0.1-1.6-1-2.2-3.9-2.3v-1h9L238.4,854.8L238.4,854.8z"/>
			<path class="st1" d="M261.9,853.3c6.2,0,11.8,4.8,11.8,12.1c0,7.9-5.3,12.8-12.1,12.8c-7,0-12.1-5.3-12.1-12.2
				C249.6,859.4,254.2,853.3,261.9,853.3z M261.2,854.6c-4.1,0-7.8,3.4-7.8,10.3c0,6.8,3.7,11.8,8.9,11.8c4.4,0,7.7-3.3,7.7-10.3
				C270,858.7,266,854.6,261.2,854.6z"/>
			<path class="st1" d="M293.1,859.5c-0.3-1-0.6-1.9-1.1-2.7c-0.7-1.2-1.2-1.5-3.3-1.5h-3.9c-1.1,0-1.2,0.1-1.2,1.2v8.4h4.5
				c2.6,0,2.8-0.4,3.4-3h1.1v7.6h-1.1c-0.5-2.6-0.7-3.1-3.3-3.1h-4.5v6.5c0,3.2,0.4,3.3,3.7,3.6v1h-10.2v-1c3-0.2,3.3-0.5,3.3-3.6
				v-14.5c0-3.2-0.4-3.3-3.3-3.6v-1h11.6c3.3,0,4.5,0,5.2-0.1c0,1.3,0.2,3.9,0.4,5.6L293.1,859.5z"/>
			<path class="st1" d="M324.7,871.8c-0.2,1-1.2,4.7-1.6,5.8h-17.8v-1c3.4-0.3,3.7-0.6,3.7-3.6v-14.4c0-3.3-0.4-3.4-3.1-3.7v-1h11.2
				c3.4,0,4.9,0,5.3-0.1c0,0.9,0.2,3.7,0.3,5.6l-1.1,0.2c-0.3-1.2-0.7-2-1.1-2.8c-0.6-1.2-1.4-1.5-3.6-1.5h-3.5
				c-1.1,0-1.2,0.1-1.2,1.2v8.1h4.1c2.7,0,2.9-0.5,3.4-3h1.1v7.5h-1.1c-0.5-2.6-0.8-3-3.4-3h-4v7.3c0,2.6,0.8,2.8,2.6,2.8h3.4
				c2.2,0,2.6-0.3,3.4-1.3c0.7-0.8,1.5-2.3,2-3.4L324.7,871.8z"/>
			<path class="st1" d="M338.5,877.6v-1c2.3-0.3,2.5-0.6,1.8-1.8c-0.8-1.4-2.4-4.2-4.7-7.7c-1.7,2.7-3.3,5.2-4.5,7.3
				c-0.8,1.5-0.5,1.9,1.9,2.2v1h-8.5v-1c2.2-0.2,3.2-0.8,4.3-2.1c1.4-1.8,2.8-3.9,6-8.8c-1.9-3.1-3.5-5.7-4.8-7.6
				c-1.6-2.4-2-2.9-4.7-3.2v-1h9.1v1c-2.3,0.2-2.3,0.6-1.8,1.6c1.2,2,2.5,4.2,4.1,6.7c1.4-2.2,2.7-4.3,3.7-6c0.9-1.6,0.6-2-1.8-2.3
				v-1h8.3v1c-2.7,0.4-3.4,0.7-5,2.9c-1.2,1.7-1.9,2.8-4.5,6.6c2,3.1,3.8,6.1,5.6,8.8c1.8,2.8,2.5,3.2,5.1,3.4v1L338.5,877.6
				L338.5,877.6z"/>
			<path class="st1" d="M370.5,871.7c-0.5,1.8-1.5,4.4-2,5.5c-1.1,0.2-3.9,0.9-6.7,0.9c-8.7,0-13.2-5.8-13.2-12.2
				c0-7.5,5.7-12.6,13.9-12.6c3.1,0,5.7,0.7,6.9,0.8c0.1,1.6,0.4,3.8,0.7,5.7l-1.1,0.3c-0.7-2.4-1.6-3.9-3.5-4.7
				c-1-0.4-2.4-0.7-3.8-0.7c-6,0-9.2,4.5-9.2,10.5c0,7.1,3.7,11.6,9.6,11.6c3.7,0,5.6-1.7,7.4-5.4L370.5,871.7z"/>
			<path class="st1" d="M392.6,871.8c-0.2,1-1.2,4.7-1.6,5.8h-17.8v-1c3.4-0.3,3.7-0.6,3.7-3.6v-14.4c0-3.3-0.4-3.4-3.1-3.7v-1H385
				c3.4,0,4.9,0,5.3-0.1c0,0.9,0.2,3.7,0.3,5.6l-1.1,0.2c-0.3-1.2-0.7-2-1.1-2.8c-0.6-1.2-1.4-1.5-3.6-1.5h-3.5
				c-1.1,0-1.2,0.1-1.2,1.2v8.1h4.1c2.7,0,2.9-0.5,3.4-3h1.1v7.5h-1.1c-0.5-2.6-0.8-3-3.4-3h-4v7.3c0,2.6,0.8,2.8,2.6,2.8h3.4
				c2.2,0,2.6-0.3,3.4-1.3c0.7-0.8,1.5-2.3,2-3.4L392.6,871.8z"/>
			<path class="st1" d="M413.5,871.5c-0.2,1.1-1.3,4.9-1.7,6.1h-17v-1c3.3-0.3,3.6-0.5,3.6-3.6v-14.5c0-3.1-0.4-3.3-3.3-3.6v-1h9.8
				v1c-2.9,0.3-3.3,0.4-3.3,3.6v14.8c0,2.2,0.3,2.7,2.4,2.8c0,0,2.7,0,2.9,0c1.9,0,2.4-0.2,3.3-1.1c0.9-1,1.7-2.4,2.2-3.8
				L413.5,871.5z"/>
			<path class="st1" d="M434.3,871.5c-0.2,1.1-1.3,4.9-1.7,6.1h-17v-1c3.3-0.3,3.6-0.5,3.6-3.6v-14.5c0-3.1-0.4-3.3-3.3-3.6v-1h9.8
				v1c-2.9,0.3-3.3,0.4-3.3,3.6v14.8c0,2.2,0.3,2.7,2.4,2.8c0,0,2.7,0,2.9,0c1.9,0,2.4-0.2,3.3-1.1c0.9-1,1.7-2.4,2.2-3.8
				L434.3,871.5z"/>
			<path class="st1" d="M455.7,871.8c-0.2,1-1.2,4.7-1.6,5.8h-17.8v-1c3.4-0.3,3.7-0.6,3.7-3.6v-14.4c0-3.3-0.4-3.4-3.1-3.7v-1H448
				c3.4,0,4.9,0,5.3-0.1c0,0.9,0.2,3.7,0.3,5.6l-1.1,0.2c-0.3-1.2-0.7-2-1.1-2.8c-0.6-1.2-1.4-1.5-3.6-1.5h-3.5
				c-1.1,0-1.2,0.1-1.2,1.2v8.1h4.1c2.7,0,2.9-0.5,3.4-3h1.1v7.5h-1.1c-0.5-2.6-0.8-3-3.4-3h-4v7.3c0,2.6,0.8,2.8,2.6,2.8h3.4
				c2.2,0,2.6-0.3,3.4-1.3c0.7-0.8,1.5-2.3,2-3.4L455.7,871.8z"/>
			<path class="st1" d="M483.5,854.8c-2.3,0.3-3.1,0.6-3.2,2.3c0,1.2-0.1,2.7-0.1,6.1v14.7h-1.4l-15.6-19.1v9.1c0,3.3,0.1,4.9,0.2,6
				c0.1,1.9,1,2.4,3.6,2.6v1h-8.9v-1c2.3-0.2,3.1-0.7,3.3-2.5c0.1-1.2,0.2-2.8,0.2-6.1v-9.3c0-1-0.1-1.6-0.7-2.4
				c-0.7-0.9-1.5-1.1-3.3-1.3v-1h5.5l15.5,18.4v-9c0-3.4-0.1-5-0.2-6.1c-0.1-1.6-1-2.2-3.9-2.3v-1h9V854.8z"/>
			<path class="st1" d="M508,871.7c-0.5,1.8-1.5,4.4-2,5.5c-1.1,0.2-3.9,0.9-6.7,0.9c-8.7,0-13.2-5.8-13.2-12.2
				c0-7.5,5.7-12.6,13.9-12.6c3.1,0,5.7,0.7,6.9,0.8c0.1,1.6,0.4,3.8,0.7,5.7l-1.1,0.3c-0.7-2.4-1.6-3.9-3.5-4.7
				c-1-0.4-2.4-0.7-3.8-0.7c-6,0-9.2,4.5-9.2,10.5c0,7.1,3.7,11.6,9.6,11.6c3.7,0,5.6-1.7,7.4-5.4L508,871.7z"/>
			<path class="st1" d="M530.2,871.8c-0.2,1-1.2,4.7-1.6,5.8h-17.8v-1c3.4-0.3,3.7-0.6,3.7-3.6v-14.4c0-3.3-0.4-3.4-3.1-3.7v-1h11.2
				c3.4,0,4.9,0,5.3-0.1c0,0.9,0.2,3.7,0.3,5.6l-1.1,0.2c-0.3-1.2-0.7-2-1.1-2.8c-0.6-1.2-1.4-1.5-3.6-1.5h-3.5
				c-1.1,0-1.2,0.1-1.2,1.2v8.1h4.1c2.7,0,2.9-0.5,3.4-3h1.1v7.5h-1.1c-0.5-2.6-0.8-3-3.4-3h-4v7.3c0,2.6,0.8,2.8,2.6,2.8h3.4
				c2.2,0,2.6-0.3,3.4-1.3c0.7-0.8,1.5-2.3,2-3.4L530.2,871.8z"/>
		</g>
	</g>
	<g>
		<g>
			<path class="st1" d="M82.1,757.9c-5.4,0.4-7.3,2.1-7.5,7c-0.1,2.4-0.3,6.9-0.3,16.7v11.5c0,10.8-1,19.1-6,25.6
				c-4,5.2-9.8,6.8-15.7,6.8c-5,0-10.2-1.3-14-4.9c-5.1-4.9-7.6-12.2-7.6-24.7v-27.1c0-9.6-0.7-10.2-7.5-10.9v-3h22.4v3
				c-6.8,0.5-7.5,1.4-7.5,10.9v26.6c0,15.5,5.9,24,16.1,24c12.1,0,16-9.4,16-27v-10.8c0-9.8-0.3-13.8-0.4-16.7
				c-0.3-4.8-2.2-6.6-8.5-7v-3h20.5C82.1,754.9,82.1,757.9,82.1,757.9z"/>
			<path class="st1" d="M145.8,757.9c-5.5,0.7-7.3,1.8-7.5,6.7c-0.1,3.4-0.3,7.9-0.3,17.8V825h-3.2l-36.5-55.7v26.6
				c0,9.6,0.3,14.3,0.4,17.4c0.2,5.4,2.3,7,8.5,7.7v3H86.4v-3c5.3-0.5,7.3-2.1,7.7-7.3c0.3-3.4,0.4-8.2,0.4-17.9v-27.1
				c0-3-0.2-4.7-1.7-7c-1.6-2.7-3.4-3.3-7.6-3.8v-3H98l36.2,53.5v-26c0-9.9-0.2-14.5-0.4-17.6c-0.3-4.8-2.2-6.3-9-6.8v-3h21.1v2.9
				H145.8z"/>
			<path class="st1" d="M151.9,824v-3c7-1,7.7-1.4,7.7-10.4v-42.2c0-9.1-0.7-9.6-7.7-10.5v-3h22.9v3c-7.1,1-7.8,1.4-7.8,10.5v42.2
				c0,9.1,0.7,9.5,7.8,10.4v3H151.9z"/>
			<path class="st1" d="M234.5,757.9c-5.7,1-7.2,1.9-10.2,11.5c-2.3,7-14.1,42.6-18.3,55.8h-2.8c-5-17.1-12.4-42-17.2-57.7
				c-2.4-7.9-3.8-8.9-9-9.6v-3h21.7v3c-6.3,0.9-6.7,2.1-5.5,6.1c2.1,7.8,8.4,28.9,13.7,46.6c4.5-13.7,10.2-31,14.2-44.4
				c1.9-6.2,0.9-7.1-6.1-8.2v-3h19.6L234.5,757.9L234.5,757.9z"/>
			<path class="st1" d="M279.6,807.1c-0.5,2.8-2.8,13.7-3.7,16.9h-41.5v-3c7.9-0.7,8.5-1.7,8.5-10.4v-42c0-9.5-0.9-10-7.3-10.7v-3
				h26.1c8,0,11.4-0.1,12.4-0.2c0.1,2.7,0.4,10.6,0.8,16.3l-2.6,0.5c-0.8-3.6-1.6-5.8-2.6-8.1c-1.4-3.5-3.3-4.3-8.5-4.3h-8.1
				c-2.6,0-2.8,0.3-2.8,3.4V786h9.5c6.4,0,6.8-1.6,7.9-8.8h2.6v21.9h-2.6c-1.1-7.7-1.8-8.7-7.9-8.7h-9.4v21.2c0,7.4,1.9,8.1,6.1,8.2
				h7.9c5.2,0,6.1-1,7.9-3.7c1.6-2.2,3.4-6.6,4.6-9.8L279.6,807.1z"/>
			<path class="st1" d="M336.2,824.8c-1.1,0-2-0.1-3.2-0.2c-6.2-0.5-9.6-2.6-13.3-9.1c-3.2-5.4-6.2-12.1-9-17.5
				c-1.7-3.4-2.8-4-7.2-4h-3v16.7c0,9,0.9,9.6,7.8,10.4v3h-22.8v-3c7.1-1,7.7-1.4,7.7-10.4v-42.4c0-9-0.9-9.4-7.7-10.3v-3h21.8
				c6.2,0,10.4,1,13.7,3.6c3.5,2.8,5.8,7.5,5.8,14c0,9.1-4.7,14.9-11,18.3c1.5,3.3,5.2,10.4,7.8,15.2c3.2,5.6,4.8,8.3,6.7,10.9
				c2.3,3.1,4.3,4.3,6.2,4.9L336.2,824.8z M304.7,790.3c4.4,0,7.3-0.9,9.4-3.1c3.3-3.1,4.7-7.3,4.7-13.1c0-11.4-6.1-15.5-12.6-15.5
				c-2.5,0-3.9,0.4-4.5,1.1c-0.8,0.7-1,1.8-1,4.6v26H304.7z"/>
			<path class="st1" d="M367.6,771c-1.5-7-3.8-13.9-11.9-13.9c-6.7,0-9,6.1-9,11.6c0,7.3,3.8,11.1,10.8,15.6
				c10.2,6.6,14.7,11.5,14.7,21.6c0,11.2-7.8,19.7-18.8,19.7c-5.1,0-9.6-1.8-13.1-3.5c-0.7-3-1.7-10.2-2.3-15.9l2.6-0.8
				c1.7,7.1,5.5,16.4,14.3,16.4c6.1,0,9.9-5.3,9.9-12.2c0-8.2-3.5-11.5-11-16.6c-9-6.1-14-11.2-14-21c0-9.5,6.3-18.4,17.6-18.4
				c4.8,0,9.5,1.6,11.3,2c0.3,3.8,0.7,8.1,1.4,15L367.6,771z"/>
			<path class="st1" d="M379.9,824v-3c7-1,7.7-1.4,7.7-10.4v-42.2c0-9.1-0.7-9.6-7.7-10.5v-3h22.9v3c-7.1,1-7.8,1.4-7.8,10.5v42.2
				c0,9.1,0.7,9.5,7.8,10.4v3H379.9z"/>
			<path class="st1" d="M455.4,771.6c-0.8-3.4-1.8-6.9-2.7-8.8c-1.4-2.9-2.2-3.6-6.9-3.6h-8.5V811c0,8.3,0.7,9.5,8.8,10.1v3h-24.8
				v-3c7.9-0.6,8.6-1.7,8.6-10.1v-51.8H422c-4.7,0-6.1,0.6-7.5,3.8c-1,2.1-1.7,4.7-2.8,8.6h-2.6c0.5-6.5,1-13.2,1.3-19.1h2
				c1.3,2.6,2.2,2.4,4.6,2.4h33.8c2.4,0,3.1-0.4,4.4-2.4h2c0,5,0.3,12.6,0.8,18.8L455.4,771.6z"/>
			<path class="st1" d="M510.4,757.9c-6,0.9-7,2-10.4,8.8c-3.8,7.8-7,15.1-11.2,24.6c-1,2.4-1.3,3.7-1.3,6.3v13.1
				c0,8.8,0.8,9.5,8.7,10.4v3h-24.5v-3c7.8-1.3,8.4-1.5,8.4-10.4V797c0-2.1-0.3-3.1-1.7-6.2c-3-6.9-5.9-13.6-10.5-23.6
				c-3.3-7.2-4.2-8.5-10-9.2v-3h21v3c-6.1,1.1-5.8,2.4-4.3,6.1c3.6,8.2,7.6,17.8,11.2,25.7c3.1-7.1,7.9-18.7,10.3-24.6
				c2-5.3,1.7-6.4-5-7.2v-3h19.3V757.9z"/>
		</g>
	</g>
</g>
<linearGradient id="SVGID_1_" gradientUnits="userSpaceOnUse" x1="51.5623" y1="282.3366" x2="330.8147" y2="282.3366">
	<stop  offset="0" style="stop-color:#3765B0"/>
	<stop  offset="1" style="stop-color:#007CE7"/>
</linearGradient>
<path class="st2" d="M323.3,495.5c0,0-2.5-6-9.8-9.1s-26.8-12.3-76.9-23.5s-116.4-74.1-125.6-83s-36.6-45.2-50.5-90.5
	s-8.2-87.7-4.8-105.4s27.3-97.2,56-114.8l3,13.8c0,0-31.5,23.9-49.5,99.3s13.4,130.3,15.9,137.3c2.6,7,30.1,63.1,93.2,106.1
	c0,0,21,14.6,53.1,25.2c32.1,10.6,74,21.1,86.1,27.1c12.1,6,17.3,12.6,17.3,12.6L323.3,495.5z"/>
<g>
	<linearGradient id="SVGID_2_" gradientUnits="userSpaceOnUse" x1="240.9594" y1="500.474" x2="127.1975" y2="124.4079">
		<stop  offset="0" style="stop-color:#007CE7"/>
		<stop  offset="1" style="stop-color:#3765B0"/>
	</linearGradient>
	<path class="st3" d="M121.6,91.1c-29.2,1.2-35.5,25.6-35.5,25.6s7,6.5,26.1,7.2c19.1,0.7,46.6-22.9,46.6-22.9
		S150.9,89.9,121.6,91.1z M94.4,107.5c0,0,15.9-9.6,42.3-5.8C136.6,101.7,106.2,104.3,94.4,107.5z"/>
	<linearGradient id="SVGID_3_" gradientUnits="userSpaceOnUse" x1="268.7837" y1="492.057" x2="155.0219" y2="115.9909">
		<stop  offset="0" style="stop-color:#007CE7"/>
		<stop  offset="1" style="stop-color:#3765B0"/>
	</linearGradient>
	<path class="st4" d="M129.7,44.6c-26.7,13.8-21.4,40.8-21.4,40.8s9.5,3.5,27.7-4c18.2-7.5,33-43,33-43S156.5,30.8,129.7,44.6z
		 M111.8,72.7c0,0,10.5-16.5,36.8-24C148.6,48.7,121.3,64.4,111.8,72.7z"/>
	<linearGradient id="SVGID_4_" gradientUnits="userSpaceOnUse" x1="214.3652" y1="508.5189" x2="100.6034" y2="132.4528">
		<stop  offset="0" style="stop-color:#007CE7"/>
		<stop  offset="1" style="stop-color:#3765B0"/>
	</linearGradient>
	<path class="st5" d="M85.4,35.7c0,0-21.7,31-18.5,50.4c3.2,19.4,11,25.8,11,25.8s25.2-9.4,22.8-39.4C98.3,42.5,85.4,35.7,85.4,35.7
		z M87.5,58.5c7.4,26.4-0.8,43.9-0.8,43.9C88.6,89.9,87.5,58.5,87.5,58.5z"/>
	<linearGradient id="SVGID_5_" gradientUnits="userSpaceOnUse" x1="209.7532" y1="509.914" x2="95.9914" y2="133.8479">
		<stop  offset="0" style="stop-color:#007CE7"/>
		<stop  offset="1" style="stop-color:#3765B0"/>
	</linearGradient>
	<path class="st6" d="M95.4,134.1c-27.7,9.3-26.9,34.5-26.9,34.5s8.5,4.3,27.1-0.3c18.5-4.6,38.4-35.1,38.4-35.1
		S123.1,124.8,95.4,134.1z M73.8,157.5c0,0,12.6-13.7,39-17.3C112.7,140.1,84.2,151.1,73.8,157.5z"/>
	<linearGradient id="SVGID_6_" gradientUnits="userSpaceOnUse" x1="172.9351" y1="521.0517" x2="59.1733" y2="144.9856">
		<stop  offset="0" style="stop-color:#007CE7"/>
		<stop  offset="1" style="stop-color:#3765B0"/>
	</linearGradient>
	<path class="st7" d="M45.1,91c0,0-12.2,35.8-3.7,53.6c8.5,17.7,17.8,21.7,17.8,21.7s21.6-16,10.9-44.2C59.3,93.9,45.1,91,45.1,91z
		 M53.4,112.3C68,135.6,65,154.7,65,154.7C63.3,142.2,53.4,112.3,53.4,112.3z"/>
	<linearGradient id="SVGID_7_" gradientUnits="userSpaceOnUse" x1="180.1467" y1="518.8701" x2="66.3849" y2="142.804">
		<stop  offset="0" style="stop-color:#007CE7"/>
		<stop  offset="1" style="stop-color:#3765B0"/>
	</linearGradient>
	<path class="st8" d="M74.4,185.4c-24.9,15.3-18.5,39.7-18.5,39.7s9.3,2.3,26.3-6.4c17-8.7,29.5-42.8,29.5-42.8
		S99.4,170.1,74.4,185.4z M58.6,213c0,0,9.2-16.2,34.1-25.6C92.7,187.4,67.4,204.5,58.6,213z"/>
	<linearGradient id="SVGID_8_" gradientUnits="userSpaceOnUse" x1="137.9015" y1="531.6495" x2="24.1396" y2="155.5834">
		<stop  offset="0" style="stop-color:#007CE7"/>
		<stop  offset="1" style="stop-color:#3765B0"/>
	</linearGradient>
	<path class="st9" d="M15.8,154.7c0,0-3.8,37.7,8.4,53.1c12.2,15.4,22.2,17.1,22.2,17.1s17.4-20.5,0.7-45.5
		C30.3,154.4,15.8,154.7,15.8,154.7z M28.7,173.6c19.4,19.4,20.7,38.7,20.7,38.7C45,200.5,28.7,173.6,28.7,173.6z"/>
	<linearGradient id="SVGID_9_" gradientUnits="userSpaceOnUse" x1="165.9976" y1="523.1503" x2="52.2358" y2="147.0842">
		<stop  offset="0" style="stop-color:#007CE7"/>
		<stop  offset="1" style="stop-color:#3765B0"/>
	</linearGradient>
	<path class="st10" d="M72.3,245.9c-18.7,22.5-4.8,43.5-4.8,43.5s9.5-0.8,22.8-14.5c13.3-13.7,14.2-50,14.2-50S91,223.4,72.3,245.9z
		 M66.2,277.1c0,0,3.5-18.3,24-35.3C90.2,241.9,71.8,266.2,66.2,277.1z"/>
	<linearGradient id="SVGID_10_" gradientUnits="userSpaceOnUse" x1="118.9981" y1="537.3679" x2="5.2363" y2="161.3018">
		<stop  offset="0" style="stop-color:#007CE7"/>
		<stop  offset="1" style="stop-color:#3765B0"/>
	</linearGradient>
	<path class="st11" d="M6.9,235.7c0,0,8.5,36.9,25.1,47.5c16.6,10.6,26.5,9.1,26.5,9.1s9.9-25-14-43.3
		C20.5,230.7,6.9,235.7,6.9,235.7z M25.2,249.4c24.6,12.2,32.1,30,32.1,30C49.3,269.6,25.2,249.4,25.2,249.4z"/>
	<linearGradient id="SVGID_11_" gradientUnits="userSpaceOnUse" x1="164.8541" y1="523.4962" x2="51.0923" y2="147.4301">
		<stop  offset="0" style="stop-color:#007CE7"/>
		<stop  offset="1" style="stop-color:#3765B0"/>
	</linearGradient>
	<path class="st12" d="M85.3,299.4c-10.9,27.1,8.7,42.9,8.7,42.9s8.8-3.7,17.3-20.8c8.5-17.1-1.7-51.9-1.7-51.9
		S96.2,272.3,85.3,299.4z M89,331c0,0-2.2-18.5,12.2-40.9C101.1,290.1,91,318.9,89,331z"/>
	<linearGradient id="SVGID_12_" gradientUnits="userSpaceOnUse" x1="117.2631" y1="537.8927" x2="3.5013" y2="161.8266">
		<stop  offset="0" style="stop-color:#007CE7"/>
		<stop  offset="1" style="stop-color:#3765B0"/>
	</linearGradient>
	<path class="st13" d="M19.9,309.6c0,0,19.3,32.6,38.3,37.6c19,5.1,28,0.6,28,0.6s1.8-26.8-26.5-37
		C31.3,300.7,19.9,309.6,19.9,309.6z M41.5,317.1c27.2,4.1,39.7,18.8,39.7,18.8C70.5,329.1,41.5,317.1,41.5,317.1z"/>
	<linearGradient id="SVGID_13_" gradientUnits="userSpaceOnUse" x1="179.6432" y1="519.0225" x2="65.8814" y2="142.9563">
		<stop  offset="0" style="stop-color:#007CE7"/>
		<stop  offset="1" style="stop-color:#3765B0"/>
	</linearGradient>
	<path class="st14" d="M114,348.4c-4.1,30.7,20.2,41.8,20.2,41.8s8.1-6.1,12.4-25.9c4.3-19.8-15.3-52.9-15.3-52.9
		S118.2,317.7,114,348.4z M126.1,379.9c0,0-7.1-18.4,1.8-45.2C127.9,334.7,125,367,126.1,379.9z"/>
	<linearGradient id="SVGID_14_" gradientUnits="userSpaceOnUse" x1="132.8503" y1="533.1775" x2="19.0885" y2="157.1114">
		<stop  offset="0" style="stop-color:#007CE7"/>
		<stop  offset="1" style="stop-color:#3765B0"/>
	</linearGradient>
	<path class="st15" d="M49.5,376c0,0,28.4,28.4,49.2,28.7c20.9,0.3,28.9-6.7,28.9-6.7s-5.1-28-36.9-31C59,363.8,49.5,376,49.5,376z
		 M73.7,378.1c29-2.9,45.7,8.9,45.7,8.9C106.7,382.7,73.7,378.1,73.7,378.1z"/>
	<linearGradient id="SVGID_15_" gradientUnits="userSpaceOnUse" x1="207.4529" y1="510.6099" x2="93.6911" y2="134.5438">
		<stop  offset="0" style="stop-color:#007CE7"/>
		<stop  offset="1" style="stop-color:#3765B0"/>
	</linearGradient>
	<path class="st16" d="M154.3,391.6c1,32.1,28.9,39.4,28.9,39.4s7.6-7.6,8.7-28.6c1.1-21-25.7-51.5-25.7-51.5
		S153.3,359.4,154.3,391.6z M172.7,421.8c0,0-10.8-17.6-6-46.5C166.7,375.2,169.2,408.7,172.7,421.8z"/>
	<linearGradient id="SVGID_16_" gradientUnits="userSpaceOnUse" x1="160.913" y1="524.6884" x2="47.1512" y2="148.6223">
		<stop  offset="0" style="stop-color:#007CE7"/>
		<stop  offset="1" style="stop-color:#3765B0"/>
	</linearGradient>
	<path class="st17" d="M90.2,430.7c0,0,35.3,24.3,57.6,21c22.3-3.3,29.7-11.8,29.7-11.8s-10.4-27.8-44.9-25.5
		C98.2,416.7,90.2,430.7,90.2,430.7z M116.4,428.7c30.4-7.8,50.3,1.4,50.3,1.4C152.4,427.9,116.4,428.7,116.4,428.7z"/>
	<linearGradient id="SVGID_17_" gradientUnits="userSpaceOnUse" x1="246.9767" y1="498.6537" x2="133.2149" y2="122.5877">
		<stop  offset="0" style="stop-color:#007CE7"/>
		<stop  offset="1" style="stop-color:#3765B0"/>
	</linearGradient>
	<path class="st18" d="M205.8,427.5c10.6,30.4,39.3,28.9,39.3,28.9s4.9-9.5-0.3-29.9c-5.2-20.3-39.9-41.5-39.9-41.5
		S195.2,397.1,205.8,427.5z M232.4,450.8c0,0-15.6-13.6-19.7-42.6C212.7,408.2,225.2,439.4,232.4,450.8z"/>
	<linearGradient id="SVGID_18_" gradientUnits="userSpaceOnUse" x1="209.8714" y1="509.8783" x2="96.1096" y2="133.8122">
		<stop  offset="0" style="stop-color:#007CE7"/>
		<stop  offset="1" style="stop-color:#3765B0"/>
	</linearGradient>
	<path class="st19" d="M156.4,483.9c0,0,40.9,12.6,61.2,2.8c20.3-9.8,24.8-20.1,24.8-20.1s-18.3-23.4-50.5-10.9
		C159.8,468.2,156.4,483.9,156.4,483.9z M180.8,474.3c26.7-16.6,48.5-13.7,48.5-13.7C214.9,462.7,180.8,474.3,180.8,474.3z"/>
</g>
<linearGradient id="SVGID_19_" gradientUnits="userSpaceOnUse" x1="-97.4756" y1="282.3366" x2="181.7768" y2="282.3366" gradientTransform="matrix(-1 0 0 1 400.1427 0)">
	<stop  offset="0" style="stop-color:#3765B0"/>
	<stop  offset="1" style="stop-color:#007CE7"/>
</linearGradient>
<path class="st20" d="M225.9,495.5c0,0,2.5-6,9.8-9.1s26.8-12.3,76.9-23.5s116.4-74.1,125.6-83c9.2-8.9,36.6-45.2,50.5-90.5
	s8.2-87.7,4.8-105.4s-27.3-97.2-56-114.8l-3,13.8c0,0,31.5,23.9,49.5,99.3c18,75.4-13.4,130.3-15.9,137.3
	c-2.6,7-30.1,63.1-93.2,106.1c0,0-21,14.6-53.1,25.2c-32.1,10.6-74,21.1-86.1,27.1s-17.3,12.6-17.3,12.6L225.9,495.5z"/>
<g>
	
		<linearGradient id="SVGID_20_" gradientUnits="userSpaceOnUse" x1="91.9215" y1="500.474" x2="-21.8403" y2="124.4079" gradientTransform="matrix(-1 0 0 1 400.1427 0)">
		<stop  offset="0" style="stop-color:#007CE7"/>
		<stop  offset="1" style="stop-color:#3765B0"/>
	</linearGradient>
	<path class="st21" d="M390.3,101c0,0,27.5,23.7,46.6,22.9c19.1-0.7,26.1-7.2,26.1-7.2s-6.3-24.4-35.5-25.6
		C398.3,89.9,390.3,101,390.3,101z M412.6,101.7c26.3-3.9,42.3,5.8,42.3,5.8C443,104.3,412.6,101.7,412.6,101.7z"/>
	
		<linearGradient id="SVGID_21_" gradientUnits="userSpaceOnUse" x1="119.7458" y1="492.057" x2="5.984" y2="115.9909" gradientTransform="matrix(-1 0 0 1 400.1427 0)">
		<stop  offset="0" style="stop-color:#007CE7"/>
		<stop  offset="1" style="stop-color:#3765B0"/>
	</linearGradient>
	<path class="st22" d="M380.2,38.4c0,0,14.8,35.4,33,43c18.2,7.5,27.7,4,27.7,4s5.3-27-21.4-40.8C392.7,30.8,380.2,38.4,380.2,38.4z
		 M400.6,48.7c26.4,7.5,36.8,24,36.8,24C427.8,64.4,400.6,48.7,400.6,48.7z"/>
	
		<linearGradient id="SVGID_22_" gradientUnits="userSpaceOnUse" x1="65.3273" y1="508.5189" x2="-48.4345" y2="132.4528" gradientTransform="matrix(-1 0 0 1 400.1427 0)">
		<stop  offset="0" style="stop-color:#007CE7"/>
		<stop  offset="1" style="stop-color:#3765B0"/>
	</linearGradient>
	<path class="st23" d="M448.5,72.5c-2.4,30,22.8,39.4,22.8,39.4s7.8-6.4,11-25.8c3.2-19.4-18.5-50.4-18.5-50.4
		S450.9,42.5,448.5,72.5z M462.5,102.4c0,0-8.2-17.5-0.8-43.9C461.7,58.5,460.6,89.9,462.5,102.4z"/>
	
		<linearGradient id="SVGID_23_" gradientUnits="userSpaceOnUse" x1="60.7153" y1="509.914" x2="-53.0465" y2="133.8479" gradientTransform="matrix(-1 0 0 1 400.1427 0)">
		<stop  offset="0" style="stop-color:#007CE7"/>
		<stop  offset="1" style="stop-color:#3765B0"/>
	</linearGradient>
	<path class="st24" d="M415.3,133.2c0,0,19.8,30.4,38.4,35.1c18.5,4.6,27.1,0.3,27.1,0.3s0.8-25.2-26.9-34.5
		C426.1,124.8,415.3,133.2,415.3,133.2z M436.4,140.1c26.4,3.6,39,17.3,39,17.3C464.9,151.1,436.4,140.1,436.4,140.1z"/>
	
		<linearGradient id="SVGID_24_" gradientUnits="userSpaceOnUse" x1="23.8972" y1="521.0517" x2="-89.8646" y2="144.9856" gradientTransform="matrix(-1 0 0 1 400.1427 0)">
		<stop  offset="0" style="stop-color:#007CE7"/>
		<stop  offset="1" style="stop-color:#3765B0"/>
	</linearGradient>
	<path class="st25" d="M479.1,122.1c-10.7,28.1,10.9,44.2,10.9,44.2s9.3-3.9,17.8-21.7c8.5-17.7-3.7-53.6-3.7-53.6
		S489.8,93.9,479.1,122.1z M484.2,154.7c0,0-3-19.1,11.5-42.4C495.7,112.3,485.9,142.2,484.2,154.7z"/>
	
		<linearGradient id="SVGID_25_" gradientUnits="userSpaceOnUse" x1="31.1088" y1="518.8701" x2="-82.653" y2="142.804" gradientTransform="matrix(-1 0 0 1 400.1427 0)">
		<stop  offset="0" style="stop-color:#007CE7"/>
		<stop  offset="1" style="stop-color:#3765B0"/>
	</linearGradient>
	<path class="st26" d="M437.4,175.9c0,0,12.5,34.1,29.5,42.8c17,8.7,26.3,6.4,26.3,6.4s6.4-24.4-18.5-39.7
		C449.8,170.1,437.4,175.9,437.4,175.9z M456.5,187.4c24.9,9.5,34.1,25.6,34.1,25.6C481.8,204.5,456.5,187.4,456.5,187.4z"/>
	
		<linearGradient id="SVGID_26_" gradientUnits="userSpaceOnUse" x1="-11.1364" y1="531.6495" x2="-124.8982" y2="155.5834" gradientTransform="matrix(-1 0 0 1 400.1427 0)">
		<stop  offset="0" style="stop-color:#007CE7"/>
		<stop  offset="1" style="stop-color:#3765B0"/>
	</linearGradient>
	<path class="st27" d="M502.1,179.4c-16.7,25,0.7,45.5,0.7,45.5s9.9-1.7,22.2-17.1c12.2-15.4,8.4-53.1,8.4-53.1
		S518.9,154.4,502.1,179.4z M499.8,212.3c0,0,1.3-19.3,20.7-38.7C520.5,173.6,504.2,200.5,499.8,212.3z"/>
	
		<linearGradient id="SVGID_27_" gradientUnits="userSpaceOnUse" x1="16.9597" y1="523.1503" x2="-96.8021" y2="147.0842" gradientTransform="matrix(-1 0 0 1 400.1427 0)">
		<stop  offset="0" style="stop-color:#007CE7"/>
		<stop  offset="1" style="stop-color:#3765B0"/>
	</linearGradient>
	<path class="st28" d="M444.6,224.9c0,0,0.9,36.3,14.2,50c13.3,13.7,22.8,14.5,22.8,14.5s13.9-21-4.8-43.5
		C458.2,223.4,444.6,224.9,444.6,224.9z M459,241.9c20.5,17,24,35.3,24,35.3C477.4,266.2,459,241.9,459,241.9z"/>
	
		<linearGradient id="SVGID_28_" gradientUnits="userSpaceOnUse" x1="-30.0398" y1="537.3679" x2="-143.8016" y2="161.3018" gradientTransform="matrix(-1 0 0 1 400.1427 0)">
		<stop  offset="0" style="stop-color:#007CE7"/>
		<stop  offset="1" style="stop-color:#3765B0"/>
	</linearGradient>
	<path class="st29" d="M504.8,249c-23.9,18.3-14,43.3-14,43.3s10,1.6,26.5-9.1c16.6-10.6,25.1-47.5,25.1-47.5S528.7,230.7,504.8,249
		z M491.9,279.4c0,0,7.5-17.8,32.1-30C524,249.4,499.9,269.6,491.9,279.4z"/>
	
		<linearGradient id="SVGID_29_" gradientUnits="userSpaceOnUse" x1="15.8162" y1="523.4962" x2="-97.9456" y2="147.4301" gradientTransform="matrix(-1 0 0 1 400.1427 0)">
		<stop  offset="0" style="stop-color:#007CE7"/>
		<stop  offset="1" style="stop-color:#3765B0"/>
	</linearGradient>
	<path class="st30" d="M439.6,269.6c0,0-10.2,34.8-1.7,51.9c8.5,17.1,17.3,20.8,17.3,20.8s19.6-15.8,8.7-42.9
		C453,272.3,439.6,269.6,439.6,269.6z M448.1,290.1c14.4,22.4,12.2,40.9,12.2,40.9C458.2,318.9,448.1,290.1,448.1,290.1z"/>
	
		<linearGradient id="SVGID_30_" gradientUnits="userSpaceOnUse" x1="-31.7748" y1="537.8927" x2="-145.5366" y2="161.8266" gradientTransform="matrix(-1 0 0 1 400.1427 0)">
		<stop  offset="0" style="stop-color:#007CE7"/>
		<stop  offset="1" style="stop-color:#3765B0"/>
	</linearGradient>
	<path class="st31" d="M489.5,310.9c-28.3,10.2-26.5,37-26.5,37s9,4.5,28-0.6c19-5.1,38.3-37.6,38.3-37.6S517.9,300.7,489.5,310.9z
		 M468,335.9c0,0,12.5-14.7,39.7-18.8C507.7,317.1,478.6,329.1,468,335.9z"/>
	
		<linearGradient id="SVGID_31_" gradientUnits="userSpaceOnUse" x1="30.6053" y1="519.0225" x2="-83.1565" y2="142.9563" gradientTransform="matrix(-1 0 0 1 400.1427 0)">
		<stop  offset="0" style="stop-color:#007CE7"/>
		<stop  offset="1" style="stop-color:#3765B0"/>
	</linearGradient>
	<path class="st32" d="M417.9,311.4c0,0-19.6,33.1-15.3,52.9c4.3,19.8,12.4,25.9,12.4,25.9s24.3-11.1,20.2-41.8
		C431,317.7,417.9,311.4,417.9,311.4z M421.3,334.7c8.9,26.8,1.8,45.2,1.8,45.2C424.2,367,421.3,334.7,421.3,334.7z"/>
	
		<linearGradient id="SVGID_32_" gradientUnits="userSpaceOnUse" x1="-16.1876" y1="533.1775" x2="-129.9494" y2="157.1114" gradientTransform="matrix(-1 0 0 1 400.1427 0)">
		<stop  offset="0" style="stop-color:#007CE7"/>
		<stop  offset="1" style="stop-color:#3765B0"/>
	</linearGradient>
	<path class="st33" d="M458.5,366.9c-31.8,3-36.9,31-36.9,31s8.1,7,28.9,6.7c20.9-0.3,49.2-28.7,49.2-28.7S490.2,363.8,458.5,366.9z
		 M429.9,387c0,0,16.7-11.8,45.7-8.9C475.5,378.1,442.5,382.7,429.9,387z"/>
	
		<linearGradient id="SVGID_33_" gradientUnits="userSpaceOnUse" x1="58.415" y1="510.6099" x2="-55.3468" y2="134.5438" gradientTransform="matrix(-1 0 0 1 400.1427 0)">
		<stop  offset="0" style="stop-color:#007CE7"/>
		<stop  offset="1" style="stop-color:#3765B0"/>
	</linearGradient>
	<path class="st34" d="M383,350.8c0,0-26.8,30.6-25.7,51.5c1.1,21,8.7,28.6,8.7,28.6s27.9-7.2,28.9-39.4
		C395.9,359.4,383,350.8,383,350.8z M382.5,375.2c4.8,28.9-6,46.5-6,46.5C380,408.7,382.5,375.2,382.5,375.2z"/>
	
		<linearGradient id="SVGID_34_" gradientUnits="userSpaceOnUse" x1="11.8751" y1="524.6884" x2="-101.8867" y2="148.6223" gradientTransform="matrix(-1 0 0 1 400.1427 0)">
		<stop  offset="0" style="stop-color:#007CE7"/>
		<stop  offset="1" style="stop-color:#3765B0"/>
	</linearGradient>
	<path class="st35" d="M416.5,414.4c-34.5-2.3-44.9,25.5-44.9,25.5s7.4,8.5,29.7,11.8c22.3,3.3,57.6-21,57.6-21
		S451,416.7,416.5,414.4z M382.4,430.2c0,0,19.9-9.3,50.3-1.4C432.8,428.7,396.7,427.9,382.4,430.2z"/>
	
		<linearGradient id="SVGID_35_" gradientUnits="userSpaceOnUse" x1="97.9388" y1="498.6537" x2="-15.823" y2="122.5877" gradientTransform="matrix(-1 0 0 1 400.1427 0)">
		<stop  offset="0" style="stop-color:#007CE7"/>
		<stop  offset="1" style="stop-color:#3765B0"/>
	</linearGradient>
	<path class="st36" d="M344.2,385c0,0-34.7,21.2-39.9,41.5c-5.2,20.3-0.3,29.9-0.3,29.9s28.8,1.5,39.3-28.9
		C353.9,397.1,344.2,385,344.2,385z M336.4,408.2c-4.1,29-19.7,42.6-19.7,42.6C324,439.4,336.4,408.2,336.4,408.2z"/>
	
		<linearGradient id="SVGID_36_" gradientUnits="userSpaceOnUse" x1="60.8335" y1="509.8783" x2="-52.9283" y2="133.8122" gradientTransform="matrix(-1 0 0 1 400.1427 0)">
		<stop  offset="0" style="stop-color:#007CE7"/>
		<stop  offset="1" style="stop-color:#3765B0"/>
	</linearGradient>
	<path class="st37" d="M357.2,455.7c-32.2-12.5-50.5,10.9-50.5,10.9s4.5,10.4,24.8,20.1c20.3,9.8,61.2-2.8,61.2-2.8
		S389.4,468.2,357.2,455.7z M320,460.6c0,0,21.8-2.9,48.5,13.7C368.4,474.3,334.3,462.7,320,460.6z"/>
</g>
<path class="st38" d="M384.2,144.1c0,0-78.2-10.9-107.5-34.4c0,0-35,22.5-110.8,34.4c0,0-14.2,171,108.2,225
	C274.2,369.1,393.2,330.7,384.2,144.1z M274.3,354.8c-109-48-96.3-200.2-96.3-200.2c67.5-10.6,98.6-30.6,98.6-30.6
	c26.1,21,95.7,30.6,95.7,30.6C380.2,320.7,274.3,354.8,274.3,354.8z"/>
<path class="st39" d="M372.2,154.6c0,0-69.5-9.7-95.7-30.6c0,0-31.1,20-98.6,30.6c0,0-12.7,152.2,96.3,200.2
	C274.3,354.8,380.2,320.7,372.2,154.6z M272.3,163.5l56.4,28.7l-1.3,2.8h-108l-2.2-2.4L272.3,163.5z M327.3,250.8v10.6H222.8v-10.6
	H327.3z M228.3,245.9v-46h15v46H228.3z M262.2,245.9v-46h21.5v46H262.2z M304.6,245.9v-46h15v46H304.6z M336.4,287.2H209.9V265
	h126.5V287.2z"/>
<rect x="1177.5" y="1020.3" class="st40" width="2291.7" height="539.3"/>
</svg>
